<?xml version="1.0" encoding="us-ascii" standalone="no"?><svg xmlns="http://www.w3.org/2000/svg" xmlns:xlink="http://www.w3.org/1999/xlink" contentStyleType="text/css" height="4595px" preserveAspectRatio="none" style="width:531px;height:4595px;background:#FFFFFF;" version="1.1" viewBox="0 0 531 4595" width="531px" zoomAndPan="magnify"><defs/><g><!--cluster 0--><g id="cluster_0"><path d="M25.5,4225 L36.5,4225 A3.75,3.75 0 0 1 39,4227.5 L46,4247.2969 L522,4247.2969 A2.5,2.5 0 0 1 524.5,4249.7969 L524.5,4585.5 A2.5,2.5 0 0 1 522,4588 L25.5,4588 A2.5,2.5 0 0 1 23,4585.5 L23,4227.5 A2.5,2.5 0 0 1 25.5,4225 " fill="#FFFFFF" style="stroke:#000000;stroke-width:1.0;"/><line style="stroke:#000000;stroke-width:1.0;" x1="23" x2="46" y1="4247.2969" y2="4247.2969"/><text fill="#000000" font-family="Verdana" font-size="14" font-weight="bold" lengthAdjust="spacing" textLength="10" x="27" y="4239.9951">0</text></g><!--cluster security--><g id="cluster_security"><path d="M49.5,4268 L116.5,4268 A3.75,3.75 0 0 1 119,4270.5 L126,4290.2969 L498,4290.2969 A2.5,2.5 0 0 1 500.5,4292.7969 L500.5,4561.5 A2.5,2.5 0 0 1 498,4564 L49.5,4564 A2.5,2.5 0 0 1 47,4561.5 L47,4270.5 A2.5,2.5 0 0 1 49.5,4268 " fill="#FFFFFF" style="stroke:#000000;stroke-width:1.0;"/><line style="stroke:#000000;stroke-width:1.0;" x1="47" x2="126" y1="4290.2969" y2="4290.2969"/><text fill="#000000" font-family="Verdana" font-size="14" font-weight="bold" lengthAdjust="spacing" textLength="66" x="51" y="4282.9951">security</text></g><!--cluster jwt--><g id="cluster_jwt"><path d="M75,4311 L102,4311 A3.75,3.75 0 0 1 104.5,4313.5 L111.5,4333.2969 L474,4333.2969 A2.5,2.5 0 0 1 476.5,4335.7969 L476.5,4482.5 A2.5,2.5 0 0 1 474,4485 L75,4485 A2.5,2.5 0 0 1 72.5,4482.5 L72.5,4313.5 A2.5,2.5 0 0 1 75,4311 " fill="#FFFFFF" style="stroke:#000000;stroke-width:1.0;"/><line style="stroke:#000000;stroke-width:1.0;" x1="72.5" x2="111.5" y1="4333.2969" y2="4333.2969"/><text fill="#000000" font-family="Verdana" font-size="14" font-weight="bold" lengthAdjust="spacing" textLength="26" x="76.5" y="4325.9951">jwt</text></g><!--cluster 1--><g id="cluster_1"><path d="M13.5,3417 L24.5,3417 A3.75,3.75 0 0 1 27,3419.5 L34,3439.2969 L330.5,3439.2969 A2.5,2.5 0 0 1 333,3441.7969 L333,4198.5 A2.5,2.5 0 0 1 330.5,4201 L13.5,4201 A2.5,2.5 0 0 1 11,4198.5 L11,3419.5 A2.5,2.5 0 0 1 13.5,3417 " fill="#FFFFFF" style="stroke:#000000;stroke-width:1.0;"/><line style="stroke:#000000;stroke-width:1.0;" x1="11" x2="34" y1="3439.2969" y2="3439.2969"/><text fill="#000000" font-family="Verdana" font-size="14" font-weight="bold" lengthAdjust="spacing" textLength="10" x="15" y="3431.9951">1</text></g><!--cluster security--><g id="cluster_security"><path d="M37.5,3460 L104.5,3460 A3.75,3.75 0 0 1 107,3462.5 L114,3482.2969 L306.5,3482.2969 A2.5,2.5 0 0 1 309,3484.7969 L309,3698.5 A2.5,2.5 0 0 1 306.5,3701 L37.5,3701 A2.5,2.5 0 0 1 35,3698.5 L35,3462.5 A2.5,2.5 0 0 1 37.5,3460 " fill="#FFFFFF" style="stroke:#000000;stroke-width:1.0;"/><line style="stroke:#000000;stroke-width:1.0;" x1="35" x2="114" y1="3482.2969" y2="3482.2969"/><text fill="#000000" font-family="Verdana" font-size="14" font-weight="bold" lengthAdjust="spacing" textLength="66" x="39" y="3474.9951">security</text></g><!--cluster service--><g id="cluster_service"><path d="M61.5,3503 L119.5,3503 A3.75,3.75 0 0 1 122,3505.5 L129,3525.2969 L282.5,3525.2969 A2.5,2.5 0 0 1 285,3527.7969 L285,3674.5 A2.5,2.5 0 0 1 282.5,3677 L61.5,3677 A2.5,2.5 0 0 1 59,3674.5 L59,3505.5 A2.5,2.5 0 0 1 61.5,3503 " fill="#FFFFFF" style="stroke:#000000;stroke-width:1.0;"/><line style="stroke:#000000;stroke-width:1.0;" x1="59" x2="129" y1="3525.2969" y2="3525.2969"/><text fill="#000000" font-family="Verdana" font-size="14" font-weight="bold" lengthAdjust="spacing" textLength="57" x="63" y="3517.9951">service</text></g><!--cluster repository--><g id="cluster_repository"><path d="M89.5,3725 L174.5,3725 A3.75,3.75 0 0 1 177,3727.5 L184,3747.2969 L254.5,3747.2969 A2.5,2.5 0 0 1 257,3749.7969 L257,3817.5 A2.5,2.5 0 0 1 254.5,3820 L89.5,3820 A2.5,2.5 0 0 1 87,3817.5 L87,3727.5 A2.5,2.5 0 0 1 89.5,3725 " fill="#FFFFFF" style="stroke:#000000;stroke-width:1.0;"/><line style="stroke:#000000;stroke-width:1.0;" x1="87" x2="184" y1="3747.2969" y2="3747.2969"/><text fill="#000000" font-family="Verdana" font-size="14" font-weight="bold" lengthAdjust="spacing" textLength="84" x="91" y="3739.9951">repository</text></g><!--cluster entity--><g id="cluster_entity"><path d="M129,3844 L179,3844 A3.75,3.75 0 0 1 181.5,3846.5 L188.5,3866.2969 L215,3866.2969 A2.5,2.5 0 0 1 217.5,3868.7969 L217.5,3936.5 A2.5,2.5 0 0 1 215,3939 L129,3939 A2.5,2.5 0 0 1 126.5,3936.5 L126.5,3846.5 A2.5,2.5 0 0 1 129,3844 " fill="#FFFFFF" style="stroke:#000000;stroke-width:1.0;"/><line style="stroke:#000000;stroke-width:1.0;" x1="126.5" x2="188.5" y1="3866.2969" y2="3866.2969"/><text fill="#000000" font-family="Verdana" font-size="14" font-weight="bold" lengthAdjust="spacing" textLength="49" x="130.5" y="3858.9951">entity</text></g><!--cluster service--><g id="cluster_service"><path d="M102.5,3963 L160.5,3963 A3.75,3.75 0 0 1 163,3965.5 L170,3985.2969 L241.5,3985.2969 A2.5,2.5 0 0 1 244,3987.7969 L244,4055.5 A2.5,2.5 0 0 1 241.5,4058 L102.5,4058 A2.5,2.5 0 0 1 100,4055.5 L100,3965.5 A2.5,2.5 0 0 1 102.5,3963 " fill="#FFFFFF" style="stroke:#000000;stroke-width:1.0;"/><line style="stroke:#000000;stroke-width:1.0;" x1="100" x2="170" y1="3985.2969" y2="3985.2969"/><text fill="#000000" font-family="Verdana" font-size="14" font-weight="bold" lengthAdjust="spacing" textLength="57" x="104" y="3977.9951">service</text></g><!--cluster controller--><g id="cluster_controller"><path d="M92.5,4082 L173.5,4082 A3.75,3.75 0 0 1 176,4084.5 L183,4104.2969 L251.5,4104.2969 A2.5,2.5 0 0 1 254,4106.7969 L254,4174.5 A2.5,2.5 0 0 1 251.5,4177 L92.5,4177 A2.5,2.5 0 0 1 90,4174.5 L90,4084.5 A2.5,2.5 0 0 1 92.5,4082 " fill="#FFFFFF" style="stroke:#000000;stroke-width:1.0;"/><line style="stroke:#000000;stroke-width:1.0;" x1="90" x2="183" y1="4104.2969" y2="4104.2969"/><text fill="#000000" font-family="Verdana" font-size="14" font-weight="bold" lengthAdjust="spacing" textLength="80" x="94" y="4096.9951">controller</text></g><!--cluster 2--><g id="cluster_2"><path d="M41,2558 L52,2558 A3.75,3.75 0 0 1 54.5,2560.5 L61.5,2580.2969 L303,2580.2969 A2.5,2.5 0 0 1 305.5,2582.7969 L305.5,3390.5 A2.5,2.5 0 0 1 303,3393 L41,3393 A2.5,2.5 0 0 1 38.5,3390.5 L38.5,2560.5 A2.5,2.5 0 0 1 41,2558 " fill="#FFFFFF" style="stroke:#000000;stroke-width:1.0;"/><line style="stroke:#000000;stroke-width:1.0;" x1="38.5" x2="61.5" y1="2580.2969" y2="2580.2969"/><text fill="#000000" font-family="Verdana" font-size="14" font-weight="bold" lengthAdjust="spacing" textLength="10" x="42.5" y="2572.9951">2</text></g><!--cluster entity--><g id="cluster_entity"><path d="M104.5,2601 L154.5,2601 A3.75,3.75 0 0 1 157,2603.5 L164,2623.2969 L239.5,2623.2969 A2.5,2.5 0 0 1 242,2625.7969 L242,2772.5 A2.5,2.5 0 0 1 239.5,2775 L104.5,2775 A2.5,2.5 0 0 1 102,2772.5 L102,2603.5 A2.5,2.5 0 0 1 104.5,2601 " fill="#FFFFFF" style="stroke:#000000;stroke-width:1.0;"/><line style="stroke:#000000;stroke-width:1.0;" x1="102" x2="164" y1="2623.2969" y2="2623.2969"/><text fill="#000000" font-family="Verdana" font-size="14" font-weight="bold" lengthAdjust="spacing" textLength="49" x="106" y="2615.9951">entity</text></g><!--cluster service--><g id="cluster_service"><path d="M78,2799 L136,2799 A3.75,3.75 0 0 1 138.5,2801.5 L145.5,2821.2969 L266,2821.2969 A2.5,2.5 0 0 1 268.5,2823.7969 L268.5,2970.5 A2.5,2.5 0 0 1 266,2973 L78,2973 A2.5,2.5 0 0 1 75.5,2970.5 L75.5,2801.5 A2.5,2.5 0 0 1 78,2799 " fill="#FFFFFF" style="stroke:#000000;stroke-width:1.0;"/><line style="stroke:#000000;stroke-width:1.0;" x1="75.5" x2="145.5" y1="2821.2969" y2="2821.2969"/><text fill="#000000" font-family="Verdana" font-size="14" font-weight="bold" lengthAdjust="spacing" textLength="57" x="79.5" y="2813.9951">service</text></g><!--cluster controller--><g id="cluster_controller"><path d="M68,2997 L149,2997 A3.75,3.75 0 0 1 151.5,2999.5 L158.5,3019.2969 L276,3019.2969 A2.5,2.5 0 0 1 278.5,3021.7969 L278.5,3168.5 A2.5,2.5 0 0 1 276,3171 L68,3171 A2.5,2.5 0 0 1 65.5,3168.5 L65.5,2999.5 A2.5,2.5 0 0 1 68,2997 " fill="#FFFFFF" style="stroke:#000000;stroke-width:1.0;"/><line style="stroke:#000000;stroke-width:1.0;" x1="65.5" x2="158.5" y1="3019.2969" y2="3019.2969"/><text fill="#000000" font-family="Verdana" font-size="14" font-weight="bold" lengthAdjust="spacing" textLength="80" x="69.5" y="3011.9951">controller</text></g><!--cluster repository--><g id="cluster_repository"><path d="M65,3195 L150,3195 A3.75,3.75 0 0 1 152.5,3197.5 L159.5,3217.2969 L279,3217.2969 A2.5,2.5 0 0 1 281.5,3219.7969 L281.5,3366.5 A2.5,2.5 0 0 1 279,3369 L65,3369 A2.5,2.5 0 0 1 62.5,3366.5 L62.5,3197.5 A2.5,2.5 0 0 1 65,3195 " fill="#FFFFFF" style="stroke:#000000;stroke-width:1.0;"/><line style="stroke:#000000;stroke-width:1.0;" x1="62.5" x2="159.5" y1="3217.2969" y2="3217.2969"/><text fill="#000000" font-family="Verdana" font-size="14" font-weight="bold" lengthAdjust="spacing" textLength="84" x="66.5" y="3209.9951">repository</text></g><!--cluster 3--><g id="cluster_3"><path d="M56,2015 L67,2015 A3.75,3.75 0 0 1 69.5,2017.5 L76.5,2037.2969 L288,2037.2969 A2.5,2.5 0 0 1 290.5,2039.7969 L290.5,2531.5 A2.5,2.5 0 0 1 288,2534 L56,2534 A2.5,2.5 0 0 1 53.5,2531.5 L53.5,2017.5 A2.5,2.5 0 0 1 56,2015 " fill="#FFFFFF" style="stroke:#000000;stroke-width:1.0;"/><line style="stroke:#000000;stroke-width:1.0;" x1="53.5" x2="76.5" y1="2037.2969" y2="2037.2969"/><text fill="#000000" font-family="Verdana" font-size="14" font-weight="bold" lengthAdjust="spacing" textLength="10" x="57.5" y="2029.9951">3</text></g><!--cluster service--><g id="cluster_service"><path d="M93,2058 L151,2058 A3.75,3.75 0 0 1 153.5,2060.5 L160.5,2080.2969 L251,2080.2969 A2.5,2.5 0 0 1 253.5,2082.7969 L253.5,2150.5 A2.5,2.5 0 0 1 251,2153 L93,2153 A2.5,2.5 0 0 1 90.5,2150.5 L90.5,2060.5 A2.5,2.5 0 0 1 93,2058 " fill="#FFFFFF" style="stroke:#000000;stroke-width:1.0;"/><line style="stroke:#000000;stroke-width:1.0;" x1="90.5" x2="160.5" y1="2080.2969" y2="2080.2969"/><text fill="#000000" font-family="Verdana" font-size="14" font-weight="bold" lengthAdjust="spacing" textLength="57" x="94.5" y="2072.9951">service</text></g><!--cluster entity--><g id="cluster_entity"><path d="M119.5,2177 L169.5,2177 A3.75,3.75 0 0 1 172,2179.5 L179,2199.2969 L224.5,2199.2969 A2.5,2.5 0 0 1 227,2201.7969 L227,2269.5 A2.5,2.5 0 0 1 224.5,2272 L119.5,2272 A2.5,2.5 0 0 1 117,2269.5 L117,2179.5 A2.5,2.5 0 0 1 119.5,2177 " fill="#FFFFFF" style="stroke:#000000;stroke-width:1.0;"/><line style="stroke:#000000;stroke-width:1.0;" x1="117" x2="179" y1="2199.2969" y2="2199.2969"/><text fill="#000000" font-family="Verdana" font-size="14" font-weight="bold" lengthAdjust="spacing" textLength="49" x="121" y="2191.9951">entity</text></g><!--cluster controller--><g id="cluster_controller"><path d="M83,2296 L164,2296 A3.75,3.75 0 0 1 166.5,2298.5 L173.5,2318.2969 L261,2318.2969 A2.5,2.5 0 0 1 263.5,2320.7969 L263.5,2388.5 A2.5,2.5 0 0 1 261,2391 L83,2391 A2.5,2.5 0 0 1 80.5,2388.5 L80.5,2298.5 A2.5,2.5 0 0 1 83,2296 " fill="#FFFFFF" style="stroke:#000000;stroke-width:1.0;"/><line style="stroke:#000000;stroke-width:1.0;" x1="80.5" x2="173.5" y1="2318.2969" y2="2318.2969"/><text fill="#000000" font-family="Verdana" font-size="14" font-weight="bold" lengthAdjust="spacing" textLength="80" x="84.5" y="2310.9951">controller</text></g><!--cluster repository--><g id="cluster_repository"><path d="M80,2415 L165,2415 A3.75,3.75 0 0 1 167.5,2417.5 L174.5,2437.2969 L264,2437.2969 A2.5,2.5 0 0 1 266.5,2439.7969 L266.5,2507.5 A2.5,2.5 0 0 1 264,2510 L80,2510 A2.5,2.5 0 0 1 77.5,2507.5 L77.5,2417.5 A2.5,2.5 0 0 1 80,2415 " fill="#FFFFFF" style="stroke:#000000;stroke-width:1.0;"/><line style="stroke:#000000;stroke-width:1.0;" x1="77.5" x2="174.5" y1="2437.2969" y2="2437.2969"/><text fill="#000000" font-family="Verdana" font-size="14" font-weight="bold" lengthAdjust="spacing" textLength="84" x="81.5" y="2429.9951">repository</text></g><!--cluster 4--><g id="cluster_4"><path d="M40,1417 L51,1417 A3.75,3.75 0 0 1 53.5,1419.5 L60.5,1439.2969 L304,1439.2969 A2.5,2.5 0 0 1 306.5,1441.7969 L306.5,1988.5 A2.5,2.5 0 0 1 304,1991 L40,1991 A2.5,2.5 0 0 1 37.5,1988.5 L37.5,1419.5 A2.5,2.5 0 0 1 40,1417 " fill="#FFFFFF" style="stroke:#000000;stroke-width:1.0;"/><line style="stroke:#000000;stroke-width:1.0;" x1="37.5" x2="60.5" y1="1439.2969" y2="1439.2969"/><text fill="#000000" font-family="Verdana" font-size="14" font-weight="bold" lengthAdjust="spacing" textLength="10" x="41.5" y="1431.9951">4</text></g><!--cluster entity--><g id="cluster_entity"><path d="M129,1460 L179,1460 A3.75,3.75 0 0 1 181.5,1462.5 L188.5,1482.2969 L215,1482.2969 A2.5,2.5 0 0 1 217.5,1484.7969 L217.5,1552.5 A2.5,2.5 0 0 1 215,1555 L129,1555 A2.5,2.5 0 0 1 126.5,1552.5 L126.5,1462.5 A2.5,2.5 0 0 1 129,1460 " fill="#FFFFFF" style="stroke:#000000;stroke-width:1.0;"/><line style="stroke:#000000;stroke-width:1.0;" x1="126.5" x2="188.5" y1="1482.2969" y2="1482.2969"/><text fill="#000000" font-family="Verdana" font-size="14" font-weight="bold" lengthAdjust="spacing" textLength="49" x="130.5" y="1474.9951">entity</text></g><!--cluster repository--><g id="cluster_repository"><path d="M89.5,1579 L174.5,1579 A3.75,3.75 0 0 1 177,1581.5 L184,1601.2969 L254.5,1601.2969 A2.5,2.5 0 0 1 257,1603.7969 L257,1671.5 A2.5,2.5 0 0 1 254.5,1674 L89.5,1674 A2.5,2.5 0 0 1 87,1671.5 L87,1581.5 A2.5,2.5 0 0 1 89.5,1579 " fill="#FFFFFF" style="stroke:#000000;stroke-width:1.0;"/><line style="stroke:#000000;stroke-width:1.0;" x1="87" x2="184" y1="1601.2969" y2="1601.2969"/><text fill="#000000" font-family="Verdana" font-size="14" font-weight="bold" lengthAdjust="spacing" textLength="84" x="91" y="1593.9951">repository</text></g><!--cluster service--><g id="cluster_service"><path d="M102.5,1698 L160.5,1698 A3.75,3.75 0 0 1 163,1700.5 L170,1720.2969 L241.5,1720.2969 A2.5,2.5 0 0 1 244,1722.7969 L244,1790.5 A2.5,2.5 0 0 1 241.5,1793 L102.5,1793 A2.5,2.5 0 0 1 100,1790.5 L100,1700.5 A2.5,2.5 0 0 1 102.5,1698 " fill="#FFFFFF" style="stroke:#000000;stroke-width:1.0;"/><line style="stroke:#000000;stroke-width:1.0;" x1="100" x2="170" y1="1720.2969" y2="1720.2969"/><text fill="#000000" font-family="Verdana" font-size="14" font-weight="bold" lengthAdjust="spacing" textLength="57" x="104" y="1712.9951">service</text></g><!--cluster controller--><g id="cluster_controller"><path d="M92.5,1817 L173.5,1817 A3.75,3.75 0 0 1 176,1819.5 L183,1839.2969 L251.5,1839.2969 A2.5,2.5 0 0 1 254,1841.7969 L254,1909.5 A2.5,2.5 0 0 1 251.5,1912 L92.5,1912 A2.5,2.5 0 0 1 90,1909.5 L90,1819.5 A2.5,2.5 0 0 1 92.5,1817 " fill="#FFFFFF" style="stroke:#000000;stroke-width:1.0;"/><line style="stroke:#000000;stroke-width:1.0;" x1="90" x2="183" y1="1839.2969" y2="1839.2969"/><text fill="#000000" font-family="Verdana" font-size="14" font-weight="bold" lengthAdjust="spacing" textLength="80" x="94" y="1831.9951">controller</text></g><!--cluster 5--><g id="cluster_5"><path d="M38,874 L49,874 A3.75,3.75 0 0 1 51.5,876.5 L58.5,896.2969 L306,896.2969 A2.5,2.5 0 0 1 308.5,898.7969 L308.5,1390.5 A2.5,2.5 0 0 1 306,1393 L38,1393 A2.5,2.5 0 0 1 35.5,1390.5 L35.5,876.5 A2.5,2.5 0 0 1 38,874 " fill="#FFFFFF" style="stroke:#000000;stroke-width:1.0;"/><line style="stroke:#000000;stroke-width:1.0;" x1="35.5" x2="58.5" y1="896.2969" y2="896.2969"/><text fill="#000000" font-family="Verdana" font-size="14" font-weight="bold" lengthAdjust="spacing" textLength="10" x="39.5" y="888.9951">5</text></g><!--cluster repository--><g id="cluster_repository"><path d="M62,917 L147,917 A3.75,3.75 0 0 1 149.5,919.5 L156.5,939.2969 L282,939.2969 A2.5,2.5 0 0 1 284.5,941.7969 L284.5,1009.5 A2.5,2.5 0 0 1 282,1012 L62,1012 A2.5,2.5 0 0 1 59.5,1009.5 L59.5,919.5 A2.5,2.5 0 0 1 62,917 " fill="#FFFFFF" style="stroke:#000000;stroke-width:1.0;"/><line style="stroke:#000000;stroke-width:1.0;" x1="59.5" x2="156.5" y1="939.2969" y2="939.2969"/><text fill="#000000" font-family="Verdana" font-size="14" font-weight="bold" lengthAdjust="spacing" textLength="84" x="63.5" y="931.9951">repository</text></g><!--cluster entity--><g id="cluster_entity"><path d="M101.5,1036 L151.5,1036 A3.75,3.75 0 0 1 154,1038.5 L161,1058.2969 L242.5,1058.2969 A2.5,2.5 0 0 1 245,1060.7969 L245,1128.5 A2.5,2.5 0 0 1 242.5,1131 L101.5,1131 A2.5,2.5 0 0 1 99,1128.5 L99,1038.5 A2.5,2.5 0 0 1 101.5,1036 " fill="#FFFFFF" style="stroke:#000000;stroke-width:1.0;"/><line style="stroke:#000000;stroke-width:1.0;" x1="99" x2="161" y1="1058.2969" y2="1058.2969"/><text fill="#000000" font-family="Verdana" font-size="14" font-weight="bold" lengthAdjust="spacing" textLength="49" x="103" y="1050.9951">entity</text></g><!--cluster service--><g id="cluster_service"><path d="M75,1155 L133,1155 A3.75,3.75 0 0 1 135.5,1157.5 L142.5,1177.2969 L269,1177.2969 A2.5,2.5 0 0 1 271.5,1179.7969 L271.5,1247.5 A2.5,2.5 0 0 1 269,1250 L75,1250 A2.5,2.5 0 0 1 72.5,1247.5 L72.5,1157.5 A2.5,2.5 0 0 1 75,1155 " fill="#FFFFFF" style="stroke:#000000;stroke-width:1.0;"/><line style="stroke:#000000;stroke-width:1.0;" x1="72.5" x2="142.5" y1="1177.2969" y2="1177.2969"/><text fill="#000000" font-family="Verdana" font-size="14" font-weight="bold" lengthAdjust="spacing" textLength="57" x="76.5" y="1169.9951">service</text></g><!--cluster controller--><g id="cluster_controller"><path d="M65,1274 L146,1274 A3.75,3.75 0 0 1 148.5,1276.5 L155.5,1296.2969 L279,1296.2969 A2.5,2.5 0 0 1 281.5,1298.7969 L281.5,1366.5 A2.5,2.5 0 0 1 279,1369 L65,1369 A2.5,2.5 0 0 1 62.5,1366.5 L62.5,1276.5 A2.5,2.5 0 0 1 65,1274 " fill="#FFFFFF" style="stroke:#000000;stroke-width:1.0;"/><line style="stroke:#000000;stroke-width:1.0;" x1="62.5" x2="155.5" y1="1296.2969" y2="1296.2969"/><text fill="#000000" font-family="Verdana" font-size="14" font-weight="bold" lengthAdjust="spacing" textLength="80" x="66.5" y="1288.9951">controller</text></g><!--cluster 6--><g id="cluster_6"><path d="M50.5,11 L61.5,11 A3.75,3.75 0 0 1 64,13.5 L71,33.2969 L293.5,33.2969 A2.5,2.5 0 0 1 296,35.7969 L296,847.5 A2.5,2.5 0 0 1 293.5,850 L50.5,850 A2.5,2.5 0 0 1 48,847.5 L48,13.5 A2.5,2.5 0 0 1 50.5,11 " fill="#FFFFFF" style="stroke:#000000;stroke-width:1.0;"/><line style="stroke:#000000;stroke-width:1.0;" x1="48" x2="71" y1="33.2969" y2="33.2969"/><text fill="#000000" font-family="Verdana" font-size="14" font-weight="bold" lengthAdjust="spacing" textLength="10" x="52" y="25.9951">6</text></g><!--cluster form--><g id="cluster_form"><path d="M74.5,54 L114.5,54 A3.75,3.75 0 0 1 117,56.5 L124,76.2969 L269.5,76.2969 A2.5,2.5 0 0 1 272,78.7969 L272,347.5 A2.5,2.5 0 0 1 269.5,350 L74.5,350 A2.5,2.5 0 0 1 72,347.5 L72,56.5 A2.5,2.5 0 0 1 74.5,54 " fill="#FFFFFF" style="stroke:#000000;stroke-width:1.0;"/><line style="stroke:#000000;stroke-width:1.0;" x1="72" x2="124" y1="76.2969" y2="76.2969"/><text fill="#000000" font-family="Verdana" font-size="14" font-weight="bold" lengthAdjust="spacing" textLength="39" x="76" y="68.9951">form</text></g><!--cluster response--><g id="cluster_response"><path d="M98.5,97 L172.5,97 A3.75,3.75 0 0 1 175,99.5 L182,119.2969 L245.5,119.2969 A2.5,2.5 0 0 1 248,121.7969 L248,189.5 A2.5,2.5 0 0 1 245.5,192 L98.5,192 A2.5,2.5 0 0 1 96,189.5 L96,99.5 A2.5,2.5 0 0 1 98.5,97 " fill="#FFFFFF" style="stroke:#000000;stroke-width:1.0;"/><line style="stroke:#000000;stroke-width:1.0;" x1="96" x2="182" y1="119.2969" y2="119.2969"/><text fill="#000000" font-family="Verdana" font-size="14" font-weight="bold" lengthAdjust="spacing" textLength="73" x="100" y="111.9951">response</text></g><!--cluster email--><g id="cluster_email"><path d="M104,374 L149,374 A3.75,3.75 0 0 1 151.5,376.5 L158.5,396.2969 L240,396.2969 A2.5,2.5 0 0 1 242.5,398.7969 L242.5,466.5 A2.5,2.5 0 0 1 240,469 L104,469 A2.5,2.5 0 0 1 101.5,466.5 L101.5,376.5 A2.5,2.5 0 0 1 104,374 " fill="#FFFFFF" style="stroke:#000000;stroke-width:1.0;"/><line style="stroke:#000000;stroke-width:1.0;" x1="101.5" x2="158.5" y1="396.2969" y2="396.2969"/><text fill="#000000" font-family="Verdana" font-size="14" font-weight="bold" lengthAdjust="spacing" textLength="44" x="105.5" y="388.9951">email</text></g><!--cluster controller--><g id="cluster_controller"><path d="M91,493 L172,493 A3.75,3.75 0 0 1 174.5,495.5 L181.5,515.2969 L253,515.2969 A2.5,2.5 0 0 1 255.5,517.7969 L255.5,585.5 A2.5,2.5 0 0 1 253,588 L91,588 A2.5,2.5 0 0 1 88.5,585.5 L88.5,495.5 A2.5,2.5 0 0 1 91,493 " fill="#FFFFFF" style="stroke:#000000;stroke-width:1.0;"/><line style="stroke:#000000;stroke-width:1.0;" x1="88.5" x2="181.5" y1="515.2969" y2="515.2969"/><text fill="#000000" font-family="Verdana" font-size="14" font-weight="bold" lengthAdjust="spacing" textLength="80" x="92.5" y="507.9951">controller</text></g><!--cluster entity--><g id="cluster_entity"><path d="M128.5,612 L178.5,612 A3.75,3.75 0 0 1 181,614.5 L188,634.2969 L215.5,634.2969 A2.5,2.5 0 0 1 218,636.7969 L218,704.5 A2.5,2.5 0 0 1 215.5,707 L128.5,707 A2.5,2.5 0 0 1 126,704.5 L126,614.5 A2.5,2.5 0 0 1 128.5,612 " fill="#FFFFFF" style="stroke:#000000;stroke-width:1.0;"/><line style="stroke:#000000;stroke-width:1.0;" x1="126" x2="188" y1="634.2969" y2="634.2969"/><text fill="#000000" font-family="Verdana" font-size="14" font-weight="bold" lengthAdjust="spacing" textLength="49" x="130" y="626.9951">entity</text></g><!--cluster repository--><g id="cluster_repository"><path d="M89,731 L174,731 A3.75,3.75 0 0 1 176.5,733.5 L183.5,753.2969 L255,753.2969 A2.5,2.5 0 0 1 257.5,755.7969 L257.5,823.5 A2.5,2.5 0 0 1 255,826 L89,826 A2.5,2.5 0 0 1 86.5,823.5 L86.5,733.5 A2.5,2.5 0 0 1 89,731 " fill="#FFFFFF" style="stroke:#000000;stroke-width:1.0;"/><line style="stroke:#000000;stroke-width:1.0;" x1="86.5" x2="183.5" y1="753.2969" y2="753.2969"/><text fill="#000000" font-family="Verdana" font-size="14" font-weight="bold" lengthAdjust="spacing" textLength="84" x="90.5" y="745.9951">repository</text></g><!--class WebSecurityConfiguration--><g id="elem_WebSecurityConfiguration"><rect codeLine="7" fill="#FFFFFF" height="44" id="WebSecurityConfiguration" rx="2.5" ry="2.5" style="stroke:#000000;stroke-width:1.0;" width="218" x="63" y="4504"/><ellipse cx="76" cy="4518" fill="#FFFFFF" rx="9" ry="9" style="stroke:#000000;stroke-width:1.0;"/><path d="M78.3438,4513.6719 C77.4063,4513.2344 76.8125,4513.0938 75.9375,4513.0938 C73.3125,4513.0938 71.3125,4515.1719 71.3125,4517.8906 L71.3125,4519.0156 C71.3125,4521.5938 73.4219,4523.4844 76.3125,4523.4844 C77.5313,4523.4844 78.6875,4523.1875 79.4375,4522.6406 C80.0156,4522.2344 80.3438,4521.7813 80.3438,4521.3906 C80.3438,4520.9375 79.9531,4520.5469 79.4844,4520.5469 C79.2656,4520.5469 79.0625,4520.625 78.875,4520.8125 C78.4219,4521.2969 78.4219,4521.2969 78.2344,4521.3906 C77.8125,4521.6563 77.125,4521.7813 76.3594,4521.7813 C74.3125,4521.7813 73.0156,4520.6875 73.0156,4518.9844 L73.0156,4517.8906 C73.0156,4516.1094 74.2656,4514.7969 76,4514.7969 C76.5781,4514.7969 77.1875,4514.9531 77.6563,4515.2031 C78.1406,4515.4844 78.3125,4515.7031 78.4063,4516.1094 C78.4688,4516.5156 78.5,4516.6406 78.6406,4516.7656 C78.7813,4516.9063 79.0156,4517.0156 79.2344,4517.0156 C79.5,4517.0156 79.7656,4516.875 79.9375,4516.6563 C80.0469,4516.5 80.0781,4516.3125 80.0781,4515.8906 L80.0781,4514.4688 C80.0781,4514.0313 80.0625,4513.9063 79.9688,4513.75 C79.8125,4513.4844 79.5313,4513.3438 79.2344,4513.3438 C78.9375,4513.3438 78.7344,4513.4375 78.5156,4513.75 L78.3438,4513.6719 Z " fill="#000000"/><text fill="#000000" font-family="Verdana" font-size="14" lengthAdjust="spacing" textLength="190" x="88" y="4522.8467">WebSecurityConfiguration</text><line style="stroke:#000000;stroke-width:1.0;" x1="64" x2="280" y1="4532" y2="4532"/><line style="stroke:#000000;stroke-width:1.0;" x1="64" x2="280" y1="4540" y2="4540"/></g><!--class JwtAuthEntryPoint--><g id="elem_JwtAuthEntryPoint"><rect codeLine="8" fill="#FFFFFF" height="44" id="JwtAuthEntryPoint" rx="2.5" ry="2.5" style="stroke:#000000;stroke-width:1.0;" width="161" x="91.5" y="4425"/><ellipse cx="104.5" cy="4439" fill="#FFFFFF" rx="9" ry="9" style="stroke:#000000;stroke-width:1.0;"/><path d="M106.8438,4434.6719 C105.9063,4434.2344 105.3125,4434.0938 104.4375,4434.0938 C101.8125,4434.0938 99.8125,4436.1719 99.8125,4438.8906 L99.8125,4440.0156 C99.8125,4442.5938 101.9219,4444.4844 104.8125,4444.4844 C106.0313,4444.4844 107.1875,4444.1875 107.9375,4443.6406 C108.5156,4443.2344 108.8438,4442.7813 108.8438,4442.3906 C108.8438,4441.9375 108.4531,4441.5469 107.9844,4441.5469 C107.7656,4441.5469 107.5625,4441.625 107.375,4441.8125 C106.9219,4442.2969 106.9219,4442.2969 106.7344,4442.3906 C106.3125,4442.6563 105.625,4442.7813 104.8594,4442.7813 C102.8125,4442.7813 101.5156,4441.6875 101.5156,4439.9844 L101.5156,4438.8906 C101.5156,4437.1094 102.7656,4435.7969 104.5,4435.7969 C105.0781,4435.7969 105.6875,4435.9531 106.1563,4436.2031 C106.6406,4436.4844 106.8125,4436.7031 106.9063,4437.1094 C106.9688,4437.5156 107,4437.6406 107.1406,4437.7656 C107.2813,4437.9063 107.5156,4438.0156 107.7344,4438.0156 C108,4438.0156 108.2656,4437.875 108.4375,4437.6563 C108.5469,4437.5 108.5781,4437.3125 108.5781,4436.8906 L108.5781,4435.4688 C108.5781,4435.0313 108.5625,4434.9063 108.4688,4434.75 C108.3125,4434.4844 108.0313,4434.3438 107.7344,4434.3438 C107.4375,4434.3438 107.2344,4434.4375 107.0156,4434.75 L106.8438,4434.6719 Z " fill="#000000"/><text fill="#000000" font-family="Verdana" font-size="14" lengthAdjust="spacing" textLength="133" x="116.5" y="4443.8467">JwtAuthEntryPoint</text><line style="stroke:#000000;stroke-width:1.0;" x1="92.5" x2="251.5" y1="4453" y2="4453"/><line style="stroke:#000000;stroke-width:1.0;" x1="92.5" x2="251.5" y1="4461" y2="4461"/></g><!--class JwtAuthTokenFilter--><g id="elem_JwtAuthTokenFilter"><rect codeLine="9" fill="#FFFFFF" height="44" id="JwtAuthTokenFilter" rx="2.5" ry="2.5" style="stroke:#000000;stroke-width:1.0;" width="167" x="88.5" y="4346"/><ellipse cx="101.5" cy="4360" fill="#FFFFFF" rx="9" ry="9" style="stroke:#000000;stroke-width:1.0;"/><path d="M103.8438,4355.6719 C102.9063,4355.2344 102.3125,4355.0938 101.4375,4355.0938 C98.8125,4355.0938 96.8125,4357.1719 96.8125,4359.8906 L96.8125,4361.0156 C96.8125,4363.5938 98.9219,4365.4844 101.8125,4365.4844 C103.0313,4365.4844 104.1875,4365.1875 104.9375,4364.6406 C105.5156,4364.2344 105.8438,4363.7813 105.8438,4363.3906 C105.8438,4362.9375 105.4531,4362.5469 104.9844,4362.5469 C104.7656,4362.5469 104.5625,4362.625 104.375,4362.8125 C103.9219,4363.2969 103.9219,4363.2969 103.7344,4363.3906 C103.3125,4363.6563 102.625,4363.7813 101.8594,4363.7813 C99.8125,4363.7813 98.5156,4362.6875 98.5156,4360.9844 L98.5156,4359.8906 C98.5156,4358.1094 99.7656,4356.7969 101.5,4356.7969 C102.0781,4356.7969 102.6875,4356.9531 103.1563,4357.2031 C103.6406,4357.4844 103.8125,4357.7031 103.9063,4358.1094 C103.9688,4358.5156 104,4358.6406 104.1406,4358.7656 C104.2813,4358.9063 104.5156,4359.0156 104.7344,4359.0156 C105,4359.0156 105.2656,4358.875 105.4375,4358.6563 C105.5469,4358.5 105.5781,4358.3125 105.5781,4357.8906 L105.5781,4356.4688 C105.5781,4356.0313 105.5625,4355.9063 105.4688,4355.75 C105.3125,4355.4844 105.0313,4355.3438 104.7344,4355.3438 C104.4375,4355.3438 104.2344,4355.4375 104.0156,4355.75 L103.8438,4355.6719 Z " fill="#000000"/><text fill="#000000" font-family="Verdana" font-size="14" lengthAdjust="spacing" textLength="139" x="113.5" y="4364.8467">JwtAuthTokenFilter</text><line style="stroke:#000000;stroke-width:1.0;" x1="89.5" x2="254.5" y1="4374" y2="4374"/><line style="stroke:#000000;stroke-width:1.0;" x1="89.5" x2="254.5" y1="4382" y2="4382"/></g><!--class JwtProvider--><g id="elem_JwtProvider"><rect codeLine="10" fill="#FFFFFF" height="44" id="JwtProvider" rx="2.5" ry="2.5" style="stroke:#000000;stroke-width:1.0;" width="110" x="350.5" y="4425"/><ellipse cx="363.5" cy="4439" fill="#FFFFFF" rx="9" ry="9" style="stroke:#000000;stroke-width:1.0;"/><path d="M365.8438,4434.6719 C364.9063,4434.2344 364.3125,4434.0938 363.4375,4434.0938 C360.8125,4434.0938 358.8125,4436.1719 358.8125,4438.8906 L358.8125,4440.0156 C358.8125,4442.5938 360.9219,4444.4844 363.8125,4444.4844 C365.0313,4444.4844 366.1875,4444.1875 366.9375,4443.6406 C367.5156,4443.2344 367.8438,4442.7813 367.8438,4442.3906 C367.8438,4441.9375 367.4531,4441.5469 366.9844,4441.5469 C366.7656,4441.5469 366.5625,4441.625 366.375,4441.8125 C365.9219,4442.2969 365.9219,4442.2969 365.7344,4442.3906 C365.3125,4442.6563 364.625,4442.7813 363.8594,4442.7813 C361.8125,4442.7813 360.5156,4441.6875 360.5156,4439.9844 L360.5156,4438.8906 C360.5156,4437.1094 361.7656,4435.7969 363.5,4435.7969 C364.0781,4435.7969 364.6875,4435.9531 365.1563,4436.2031 C365.6406,4436.4844 365.8125,4436.7031 365.9063,4437.1094 C365.9688,4437.5156 366,4437.6406 366.1406,4437.7656 C366.2813,4437.9063 366.5156,4438.0156 366.7344,4438.0156 C367,4438.0156 367.2656,4437.875 367.4375,4437.6563 C367.5469,4437.5 367.5781,4437.3125 367.5781,4436.8906 L367.5781,4435.4688 C367.5781,4435.0313 367.5625,4434.9063 367.4688,4434.75 C367.3125,4434.4844 367.0313,4434.3438 366.7344,4434.3438 C366.4375,4434.3438 366.2344,4434.4375 366.0156,4434.75 L365.8438,4434.6719 Z " fill="#000000"/><text fill="#000000" font-family="Verdana" font-size="14" lengthAdjust="spacing" textLength="82" x="375.5" y="4443.8467">JwtProvider</text><line style="stroke:#000000;stroke-width:1.0;" x1="351.5" x2="459.5" y1="4453" y2="4453"/><line style="stroke:#000000;stroke-width:1.0;" x1="351.5" x2="459.5" y1="4461" y2="4461"/></g><!--class UserDetailsServiceImpl--><g id="elem_UserDetailsServiceImpl"><rect codeLine="14" fill="#FFFFFF" height="44" id="UserDetailsServiceImpl" rx="2.5" ry="2.5" style="stroke:#000000;stroke-width:1.0;" width="194" x="75" y="3538"/><ellipse cx="88" cy="3552" fill="#FFFFFF" rx="9" ry="9" style="stroke:#000000;stroke-width:1.0;"/><path d="M90.3438,3547.6719 C89.4063,3547.2344 88.8125,3547.0938 87.9375,3547.0938 C85.3125,3547.0938 83.3125,3549.1719 83.3125,3551.8906 L83.3125,3553.0156 C83.3125,3555.5938 85.4219,3557.4844 88.3125,3557.4844 C89.5313,3557.4844 90.6875,3557.1875 91.4375,3556.6406 C92.0156,3556.2344 92.3438,3555.7813 92.3438,3555.3906 C92.3438,3554.9375 91.9531,3554.5469 91.4844,3554.5469 C91.2656,3554.5469 91.0625,3554.625 90.875,3554.8125 C90.4219,3555.2969 90.4219,3555.2969 90.2344,3555.3906 C89.8125,3555.6563 89.125,3555.7813 88.3594,3555.7813 C86.3125,3555.7813 85.0156,3554.6875 85.0156,3552.9844 L85.0156,3551.8906 C85.0156,3550.1094 86.2656,3548.7969 88,3548.7969 C88.5781,3548.7969 89.1875,3548.9531 89.6563,3549.2031 C90.1406,3549.4844 90.3125,3549.7031 90.4063,3550.1094 C90.4688,3550.5156 90.5,3550.6406 90.6406,3550.7656 C90.7813,3550.9063 91.0156,3551.0156 91.2344,3551.0156 C91.5,3551.0156 91.7656,3550.875 91.9375,3550.6563 C92.0469,3550.5 92.0781,3550.3125 92.0781,3549.8906 L92.0781,3548.4688 C92.0781,3548.0313 92.0625,3547.9063 91.9688,3547.75 C91.8125,3547.4844 91.5313,3547.3438 91.2344,3547.3438 C90.9375,3547.3438 90.7344,3547.4375 90.5156,3547.75 L90.3438,3547.6719 Z " fill="#000000"/><text fill="#000000" font-family="Verdana" font-size="14" lengthAdjust="spacing" textLength="166" x="100" y="3556.8467">UserDetailsServiceImpl</text><line style="stroke:#000000;stroke-width:1.0;" x1="76" x2="268" y1="3566" y2="3566"/><line style="stroke:#000000;stroke-width:1.0;" x1="76" x2="268" y1="3574" y2="3574"/></g><!--class UserPrinciple--><g id="elem_UserPrinciple"><rect codeLine="17" fill="#FFFFFF" height="44" id="UserPrinciple" rx="2.5" ry="2.5" style="stroke:#000000;stroke-width:1.0;" width="122" x="111" y="3617"/><ellipse cx="124" cy="3631" fill="#FFFFFF" rx="9" ry="9" style="stroke:#000000;stroke-width:1.0;"/><path d="M126.3438,3626.6719 C125.4063,3626.2344 124.8125,3626.0938 123.9375,3626.0938 C121.3125,3626.0938 119.3125,3628.1719 119.3125,3630.8906 L119.3125,3632.0156 C119.3125,3634.5938 121.4219,3636.4844 124.3125,3636.4844 C125.5313,3636.4844 126.6875,3636.1875 127.4375,3635.6406 C128.0156,3635.2344 128.3438,3634.7813 128.3438,3634.3906 C128.3438,3633.9375 127.9531,3633.5469 127.4844,3633.5469 C127.2656,3633.5469 127.0625,3633.625 126.875,3633.8125 C126.4219,3634.2969 126.4219,3634.2969 126.2344,3634.3906 C125.8125,3634.6563 125.125,3634.7813 124.3594,3634.7813 C122.3125,3634.7813 121.0156,3633.6875 121.0156,3631.9844 L121.0156,3630.8906 C121.0156,3629.1094 122.2656,3627.7969 124,3627.7969 C124.5781,3627.7969 125.1875,3627.9531 125.6563,3628.2031 C126.1406,3628.4844 126.3125,3628.7031 126.4063,3629.1094 C126.4688,3629.5156 126.5,3629.6406 126.6406,3629.7656 C126.7813,3629.9063 127.0156,3630.0156 127.2344,3630.0156 C127.5,3630.0156 127.7656,3629.875 127.9375,3629.6563 C128.0469,3629.5 128.0781,3629.3125 128.0781,3628.8906 L128.0781,3627.4688 C128.0781,3627.0313 128.0625,3626.9063 127.9688,3626.75 C127.8125,3626.4844 127.5313,3626.3438 127.2344,3626.3438 C126.9375,3626.3438 126.7344,3626.4375 126.5156,3626.75 L126.3438,3626.6719 Z " fill="#000000"/><text fill="#000000" font-family="Verdana" font-size="14" lengthAdjust="spacing" textLength="94" x="136" y="3635.8467">UserPrinciple</text><line style="stroke:#000000;stroke-width:1.0;" x1="112" x2="232" y1="3645" y2="3645"/><line style="stroke:#000000;stroke-width:1.0;" x1="112" x2="232" y1="3653" y2="3653"/></g><!--class UserRepository--><g id="elem_UserRepository"><rect codeLine="15" fill="#FFFFFF" height="44" id="UserRepository" rx="2.5" ry="2.5" style="stroke:#000000;stroke-width:1.0;" width="138" x="103" y="3760"/><ellipse cx="116" cy="3774" fill="#FFFFFF" rx="9" ry="9" style="stroke:#000000;stroke-width:1.0;"/><path d="M118.3438,3769.6719 C117.4063,3769.2344 116.8125,3769.0938 115.9375,3769.0938 C113.3125,3769.0938 111.3125,3771.1719 111.3125,3773.8906 L111.3125,3775.0156 C111.3125,3777.5938 113.4219,3779.4844 116.3125,3779.4844 C117.5313,3779.4844 118.6875,3779.1875 119.4375,3778.6406 C120.0156,3778.2344 120.3438,3777.7813 120.3438,3777.3906 C120.3438,3776.9375 119.9531,3776.5469 119.4844,3776.5469 C119.2656,3776.5469 119.0625,3776.625 118.875,3776.8125 C118.4219,3777.2969 118.4219,3777.2969 118.2344,3777.3906 C117.8125,3777.6563 117.125,3777.7813 116.3594,3777.7813 C114.3125,3777.7813 113.0156,3776.6875 113.0156,3774.9844 L113.0156,3773.8906 C113.0156,3772.1094 114.2656,3770.7969 116,3770.7969 C116.5781,3770.7969 117.1875,3770.9531 117.6563,3771.2031 C118.1406,3771.4844 118.3125,3771.7031 118.4063,3772.1094 C118.4688,3772.5156 118.5,3772.6406 118.6406,3772.7656 C118.7813,3772.9063 119.0156,3773.0156 119.2344,3773.0156 C119.5,3773.0156 119.7656,3772.875 119.9375,3772.6563 C120.0469,3772.5 120.0781,3772.3125 120.0781,3771.8906 L120.0781,3770.4688 C120.0781,3770.0313 120.0625,3769.9063 119.9688,3769.75 C119.8125,3769.4844 119.5313,3769.3438 119.2344,3769.3438 C118.9375,3769.3438 118.7344,3769.4375 118.5156,3769.75 L118.3438,3769.6719 Z " fill="#000000"/><text fill="#000000" font-family="Verdana" font-size="14" lengthAdjust="spacing" textLength="110" x="128" y="3778.8467">UserRepository</text><line style="stroke:#000000;stroke-width:1.0;" x1="104" x2="240" y1="3788" y2="3788"/><line style="stroke:#000000;stroke-width:1.0;" x1="104" x2="240" y1="3796" y2="3796"/></g><!--class User--><g id="elem_User"><rect codeLine="16" fill="#FFFFFF" height="44" id="User" rx="2.5" ry="2.5" style="stroke:#000000;stroke-width:1.0;" width="59" x="142.5" y="3879"/><ellipse cx="155.5" cy="3893" fill="#FFFFFF" rx="9" ry="9" style="stroke:#000000;stroke-width:1.0;"/><path d="M154.2969,3893.875 L155.75,3893.875 L155.75,3893.9844 C155.75,3894.3906 155.7813,3894.5469 155.8594,3894.7031 C156.0156,3894.9531 156.2969,3895.1094 156.5938,3895.1094 C156.8438,3895.1094 157.1094,3894.9688 157.2656,3894.75 C157.3906,3894.5938 157.4219,3894.4375 157.4219,3893.9844 L157.4219,3892.0625 C157.4219,3891.9063 157.4219,3891.8594 157.4063,3891.7031 C157.3438,3891.2344 157.0313,3890.9219 156.5781,3890.9219 C156.3281,3890.9219 156.0625,3891.0625 155.8906,3891.2813 C155.7813,3891.4531 155.75,3891.6094 155.75,3892.0625 L155.75,3892.1875 L154.2969,3892.1875 L154.2969,3889.7813 L158.2813,3889.7813 L158.2813,3890.6406 C158.2813,3891.0469 158.3125,3891.2188 158.3906,3891.375 C158.5625,3891.625 158.8438,3891.7813 159.125,3891.7813 C159.3906,3891.7813 159.6563,3891.6406 159.8281,3891.4219 C159.9375,3891.25 159.9688,3891.1094 159.9688,3890.6406 L159.9688,3888.0938 L152.3438,3888.0938 C151.9063,3888.0938 151.7813,3888.1094 151.625,3888.2031 C151.375,3888.3594 151.2188,3888.6563 151.2188,3888.9375 C151.2188,3889.2188 151.3594,3889.4688 151.5781,3889.6406 C151.7344,3889.75 151.9219,3889.7813 152.3438,3889.7813 L152.5938,3889.7813 L152.5938,3896.2969 L152.3438,3896.2969 C151.9375,3896.2969 151.7813,3896.3125 151.625,3896.4219 C151.375,3896.5938 151.2188,3896.8594 151.2188,3897.1563 C151.2188,3897.4219 151.3594,3897.6719 151.5781,3897.8281 C151.7188,3897.9531 151.9531,3898 152.3438,3898 L160.3438,3898 L160.3438,3895.4219 C160.3438,3894.9844 160.3125,3894.8438 160.2344,3894.6875 C160.0625,3894.4375 159.7813,3894.2813 159.5,3894.2813 C159.2344,3894.2813 158.9688,3894.3906 158.7969,3894.6406 C158.6875,3894.7969 158.6563,3894.9375 158.6563,3895.4219 L158.6563,3896.2969 L154.2969,3896.2969 L154.2969,3893.875 Z " fill="#000000"/><text fill="#000000" font-family="Verdana" font-size="14" lengthAdjust="spacing" textLength="31" x="167.5" y="3897.8467">User</text><line style="stroke:#000000;stroke-width:1.0;" x1="143.5" x2="200.5" y1="3907" y2="3907"/><line style="stroke:#000000;stroke-width:1.0;" x1="143.5" x2="200.5" y1="3915" y2="3915"/></g><!--class UserService--><g id="elem_UserService"><rect codeLine="18" fill="#FFFFFF" height="44" id="UserService" rx="2.5" ry="2.5" style="stroke:#000000;stroke-width:1.0;" width="112" x="116" y="3998"/><ellipse cx="129" cy="4012" fill="#FFFFFF" rx="9" ry="9" style="stroke:#000000;stroke-width:1.0;"/><path d="M131.3438,4007.6719 C130.4063,4007.2344 129.8125,4007.0938 128.9375,4007.0938 C126.3125,4007.0938 124.3125,4009.1719 124.3125,4011.8906 L124.3125,4013.0156 C124.3125,4015.5938 126.4219,4017.4844 129.3125,4017.4844 C130.5313,4017.4844 131.6875,4017.1875 132.4375,4016.6406 C133.0156,4016.2344 133.3438,4015.7813 133.3438,4015.3906 C133.3438,4014.9375 132.9531,4014.5469 132.4844,4014.5469 C132.2656,4014.5469 132.0625,4014.625 131.875,4014.8125 C131.4219,4015.2969 131.4219,4015.2969 131.2344,4015.3906 C130.8125,4015.6563 130.125,4015.7813 129.3594,4015.7813 C127.3125,4015.7813 126.0156,4014.6875 126.0156,4012.9844 L126.0156,4011.8906 C126.0156,4010.1094 127.2656,4008.7969 129,4008.7969 C129.5781,4008.7969 130.1875,4008.9531 130.6563,4009.2031 C131.1406,4009.4844 131.3125,4009.7031 131.4063,4010.1094 C131.4688,4010.5156 131.5,4010.6406 131.6406,4010.7656 C131.7813,4010.9063 132.0156,4011.0156 132.2344,4011.0156 C132.5,4011.0156 132.7656,4010.875 132.9375,4010.6563 C133.0469,4010.5 133.0781,4010.3125 133.0781,4009.8906 L133.0781,4008.4688 C133.0781,4008.0313 133.0625,4007.9063 132.9688,4007.75 C132.8125,4007.4844 132.5313,4007.3438 132.2344,4007.3438 C131.9375,4007.3438 131.7344,4007.4375 131.5156,4007.75 L131.3438,4007.6719 Z " fill="#000000"/><text fill="#000000" font-family="Verdana" font-size="14" lengthAdjust="spacing" textLength="84" x="141" y="4016.8467">UserService</text><line style="stroke:#000000;stroke-width:1.0;" x1="117" x2="227" y1="4026" y2="4026"/><line style="stroke:#000000;stroke-width:1.0;" x1="117" x2="227" y1="4034" y2="4034"/></g><!--class UserController--><g id="elem_UserController"><rect codeLine="19" fill="#FFFFFF" height="44" id="UserController" rx="2.5" ry="2.5" style="stroke:#000000;stroke-width:1.0;" width="132" x="106" y="4117"/><ellipse cx="119" cy="4131" fill="#FFFFFF" rx="9" ry="9" style="stroke:#000000;stroke-width:1.0;"/><path d="M121.3438,4126.6719 C120.4063,4126.2344 119.8125,4126.0938 118.9375,4126.0938 C116.3125,4126.0938 114.3125,4128.1719 114.3125,4130.8906 L114.3125,4132.0156 C114.3125,4134.5938 116.4219,4136.4844 119.3125,4136.4844 C120.5313,4136.4844 121.6875,4136.1875 122.4375,4135.6406 C123.0156,4135.2344 123.3438,4134.7813 123.3438,4134.3906 C123.3438,4133.9375 122.9531,4133.5469 122.4844,4133.5469 C122.2656,4133.5469 122.0625,4133.625 121.875,4133.8125 C121.4219,4134.2969 121.4219,4134.2969 121.2344,4134.3906 C120.8125,4134.6563 120.125,4134.7813 119.3594,4134.7813 C117.3125,4134.7813 116.0156,4133.6875 116.0156,4131.9844 L116.0156,4130.8906 C116.0156,4129.1094 117.2656,4127.7969 119,4127.7969 C119.5781,4127.7969 120.1875,4127.9531 120.6563,4128.2031 C121.1406,4128.4844 121.3125,4128.7031 121.4063,4129.1094 C121.4688,4129.5156 121.5,4129.6406 121.6406,4129.7656 C121.7813,4129.9063 122.0156,4130.0156 122.2344,4130.0156 C122.5,4130.0156 122.7656,4129.875 122.9375,4129.6563 C123.0469,4129.5 123.0781,4129.3125 123.0781,4128.8906 L123.0781,4127.4688 C123.0781,4127.0313 123.0625,4126.9063 122.9688,4126.75 C122.8125,4126.4844 122.5313,4126.3438 122.2344,4126.3438 C121.9375,4126.3438 121.7344,4126.4375 121.5156,4126.75 L121.3438,4126.6719 Z " fill="#000000"/><text fill="#000000" font-family="Verdana" font-size="14" lengthAdjust="spacing" textLength="104" x="131" y="4135.8467">UserController</text><line style="stroke:#000000;stroke-width:1.0;" x1="107" x2="237" y1="4145" y2="4145"/><line style="stroke:#000000;stroke-width:1.0;" x1="107" x2="237" y1="4153" y2="4153"/></g><!--class Bill--><g id="elem_Bill"><rect codeLine="23" fill="#FFFFFF" height="44" id="Bill" rx="2.5" ry="2.5" style="stroke:#000000;stroke-width:1.0;" width="50" x="147" y="2636"/><ellipse cx="160" cy="2650" fill="#FFFFFF" rx="9" ry="9" style="stroke:#000000;stroke-width:1.0;"/><path d="M158.7969,2650.875 L160.25,2650.875 L160.25,2650.9844 C160.25,2651.3906 160.2813,2651.5469 160.3594,2651.7031 C160.5156,2651.9531 160.7969,2652.1094 161.0938,2652.1094 C161.3438,2652.1094 161.6094,2651.9688 161.7656,2651.75 C161.8906,2651.5938 161.9219,2651.4375 161.9219,2650.9844 L161.9219,2649.0625 C161.9219,2648.9063 161.9219,2648.8594 161.9063,2648.7031 C161.8438,2648.2344 161.5313,2647.9219 161.0781,2647.9219 C160.8281,2647.9219 160.5625,2648.0625 160.3906,2648.2813 C160.2813,2648.4531 160.25,2648.6094 160.25,2649.0625 L160.25,2649.1875 L158.7969,2649.1875 L158.7969,2646.7813 L162.7813,2646.7813 L162.7813,2647.6406 C162.7813,2648.0469 162.8125,2648.2188 162.8906,2648.375 C163.0625,2648.625 163.3438,2648.7813 163.625,2648.7813 C163.8906,2648.7813 164.1563,2648.6406 164.3281,2648.4219 C164.4375,2648.25 164.4688,2648.1094 164.4688,2647.6406 L164.4688,2645.0938 L156.8438,2645.0938 C156.4063,2645.0938 156.2813,2645.1094 156.125,2645.2031 C155.875,2645.3594 155.7188,2645.6563 155.7188,2645.9375 C155.7188,2646.2188 155.8594,2646.4688 156.0781,2646.6406 C156.2344,2646.75 156.4219,2646.7813 156.8438,2646.7813 L157.0938,2646.7813 L157.0938,2653.2969 L156.8438,2653.2969 C156.4375,2653.2969 156.2813,2653.3125 156.125,2653.4219 C155.875,2653.5938 155.7188,2653.8594 155.7188,2654.1563 C155.7188,2654.4219 155.8594,2654.6719 156.0781,2654.8281 C156.2188,2654.9531 156.4531,2655 156.8438,2655 L164.8438,2655 L164.8438,2652.4219 C164.8438,2651.9844 164.8125,2651.8438 164.7344,2651.6875 C164.5625,2651.4375 164.2813,2651.2813 164,2651.2813 C163.7344,2651.2813 163.4688,2651.3906 163.2969,2651.6406 C163.1875,2651.7969 163.1563,2651.9375 163.1563,2652.4219 L163.1563,2653.2969 L158.7969,2653.2969 L158.7969,2650.875 Z " fill="#000000"/><text fill="#000000" font-family="Verdana" font-size="14" lengthAdjust="spacing" textLength="22" x="172" y="2654.8467">Bill</text><line style="stroke:#000000;stroke-width:1.0;" x1="148" x2="196" y1="2664" y2="2664"/><line style="stroke:#000000;stroke-width:1.0;" x1="148" x2="196" y1="2672" y2="2672"/></g><!--class BillPosition--><g id="elem_BillPosition"><rect codeLine="24" fill="#FFFFFF" height="44" id="BillPosition" rx="2.5" ry="2.5" style="stroke:#000000;stroke-width:1.0;" width="108" x="118" y="2715"/><ellipse cx="131" cy="2729" fill="#FFFFFF" rx="9" ry="9" style="stroke:#000000;stroke-width:1.0;"/><path d="M129.7969,2729.875 L131.25,2729.875 L131.25,2729.9844 C131.25,2730.3906 131.2813,2730.5469 131.3594,2730.7031 C131.5156,2730.9531 131.7969,2731.1094 132.0938,2731.1094 C132.3438,2731.1094 132.6094,2730.9688 132.7656,2730.75 C132.8906,2730.5938 132.9219,2730.4375 132.9219,2729.9844 L132.9219,2728.0625 C132.9219,2727.9063 132.9219,2727.8594 132.9063,2727.7031 C132.8438,2727.2344 132.5313,2726.9219 132.0781,2726.9219 C131.8281,2726.9219 131.5625,2727.0625 131.3906,2727.2813 C131.2813,2727.4531 131.25,2727.6094 131.25,2728.0625 L131.25,2728.1875 L129.7969,2728.1875 L129.7969,2725.7813 L133.7813,2725.7813 L133.7813,2726.6406 C133.7813,2727.0469 133.8125,2727.2188 133.8906,2727.375 C134.0625,2727.625 134.3438,2727.7813 134.625,2727.7813 C134.8906,2727.7813 135.1563,2727.6406 135.3281,2727.4219 C135.4375,2727.25 135.4688,2727.1094 135.4688,2726.6406 L135.4688,2724.0938 L127.8438,2724.0938 C127.4063,2724.0938 127.2813,2724.1094 127.125,2724.2031 C126.875,2724.3594 126.7188,2724.6563 126.7188,2724.9375 C126.7188,2725.2188 126.8594,2725.4688 127.0781,2725.6406 C127.2344,2725.75 127.4219,2725.7813 127.8438,2725.7813 L128.0938,2725.7813 L128.0938,2732.2969 L127.8438,2732.2969 C127.4375,2732.2969 127.2813,2732.3125 127.125,2732.4219 C126.875,2732.5938 126.7188,2732.8594 126.7188,2733.1563 C126.7188,2733.4219 126.8594,2733.6719 127.0781,2733.8281 C127.2188,2733.9531 127.4531,2734 127.8438,2734 L135.8438,2734 L135.8438,2731.4219 C135.8438,2730.9844 135.8125,2730.8438 135.7344,2730.6875 C135.5625,2730.4375 135.2813,2730.2813 135,2730.2813 C134.7344,2730.2813 134.4688,2730.3906 134.2969,2730.6406 C134.1875,2730.7969 134.1563,2730.9375 134.1563,2731.4219 L134.1563,2732.2969 L129.7969,2732.2969 L129.7969,2729.875 Z " fill="#000000"/><text fill="#000000" font-family="Verdana" font-size="14" lengthAdjust="spacing" textLength="80" x="143" y="2733.8467">BillPosition</text><line style="stroke:#000000;stroke-width:1.0;" x1="119" x2="225" y1="2743" y2="2743"/><line style="stroke:#000000;stroke-width:1.0;" x1="119" x2="225" y1="2751" y2="2751"/></g><!--class BillService--><g id="elem_BillService"><rect codeLine="25" fill="#FFFFFF" height="44" id="BillService" rx="2.5" ry="2.5" style="stroke:#000000;stroke-width:1.0;" width="103" x="120.5" y="2834"/><ellipse cx="133.5" cy="2848" fill="#FFFFFF" rx="9" ry="9" style="stroke:#000000;stroke-width:1.0;"/><path d="M135.8438,2843.6719 C134.9063,2843.2344 134.3125,2843.0938 133.4375,2843.0938 C130.8125,2843.0938 128.8125,2845.1719 128.8125,2847.8906 L128.8125,2849.0156 C128.8125,2851.5938 130.9219,2853.4844 133.8125,2853.4844 C135.0313,2853.4844 136.1875,2853.1875 136.9375,2852.6406 C137.5156,2852.2344 137.8438,2851.7813 137.8438,2851.3906 C137.8438,2850.9375 137.4531,2850.5469 136.9844,2850.5469 C136.7656,2850.5469 136.5625,2850.625 136.375,2850.8125 C135.9219,2851.2969 135.9219,2851.2969 135.7344,2851.3906 C135.3125,2851.6563 134.625,2851.7813 133.8594,2851.7813 C131.8125,2851.7813 130.5156,2850.6875 130.5156,2848.9844 L130.5156,2847.8906 C130.5156,2846.1094 131.7656,2844.7969 133.5,2844.7969 C134.0781,2844.7969 134.6875,2844.9531 135.1563,2845.2031 C135.6406,2845.4844 135.8125,2845.7031 135.9063,2846.1094 C135.9688,2846.5156 136,2846.6406 136.1406,2846.7656 C136.2813,2846.9063 136.5156,2847.0156 136.7344,2847.0156 C137,2847.0156 137.2656,2846.875 137.4375,2846.6563 C137.5469,2846.5 137.5781,2846.3125 137.5781,2845.8906 L137.5781,2844.4688 C137.5781,2844.0313 137.5625,2843.9063 137.4688,2843.75 C137.3125,2843.4844 137.0313,2843.3438 136.7344,2843.3438 C136.4375,2843.3438 136.2344,2843.4375 136.0156,2843.75 L135.8438,2843.6719 Z " fill="#000000"/><text fill="#000000" font-family="Verdana" font-size="14" lengthAdjust="spacing" textLength="75" x="145.5" y="2852.8467">BillService</text><line style="stroke:#000000;stroke-width:1.0;" x1="121.5" x2="222.5" y1="2862" y2="2862"/><line style="stroke:#000000;stroke-width:1.0;" x1="121.5" x2="222.5" y1="2870" y2="2870"/></g><!--class BillPositionService--><g id="elem_BillPositionService"><rect codeLine="27" fill="#FFFFFF" height="44" id="BillPositionService" rx="2.5" ry="2.5" style="stroke:#000000;stroke-width:1.0;" width="161" x="91.5" y="2913"/><ellipse cx="104.5" cy="2927" fill="#FFFFFF" rx="9" ry="9" style="stroke:#000000;stroke-width:1.0;"/><path d="M106.8438,2922.6719 C105.9063,2922.2344 105.3125,2922.0938 104.4375,2922.0938 C101.8125,2922.0938 99.8125,2924.1719 99.8125,2926.8906 L99.8125,2928.0156 C99.8125,2930.5938 101.9219,2932.4844 104.8125,2932.4844 C106.0313,2932.4844 107.1875,2932.1875 107.9375,2931.6406 C108.5156,2931.2344 108.8438,2930.7813 108.8438,2930.3906 C108.8438,2929.9375 108.4531,2929.5469 107.9844,2929.5469 C107.7656,2929.5469 107.5625,2929.625 107.375,2929.8125 C106.9219,2930.2969 106.9219,2930.2969 106.7344,2930.3906 C106.3125,2930.6563 105.625,2930.7813 104.8594,2930.7813 C102.8125,2930.7813 101.5156,2929.6875 101.5156,2927.9844 L101.5156,2926.8906 C101.5156,2925.1094 102.7656,2923.7969 104.5,2923.7969 C105.0781,2923.7969 105.6875,2923.9531 106.1563,2924.2031 C106.6406,2924.4844 106.8125,2924.7031 106.9063,2925.1094 C106.9688,2925.5156 107,2925.6406 107.1406,2925.7656 C107.2813,2925.9063 107.5156,2926.0156 107.7344,2926.0156 C108,2926.0156 108.2656,2925.875 108.4375,2925.6563 C108.5469,2925.5 108.5781,2925.3125 108.5781,2924.8906 L108.5781,2923.4688 C108.5781,2923.0313 108.5625,2922.9063 108.4688,2922.75 C108.3125,2922.4844 108.0313,2922.3438 107.7344,2922.3438 C107.4375,2922.3438 107.2344,2922.4375 107.0156,2922.75 L106.8438,2922.6719 Z " fill="#000000"/><text fill="#000000" font-family="Verdana" font-size="14" lengthAdjust="spacing" textLength="133" x="116.5" y="2931.8467">BillPositionService</text><line style="stroke:#000000;stroke-width:1.0;" x1="92.5" x2="251.5" y1="2941" y2="2941"/><line style="stroke:#000000;stroke-width:1.0;" x1="92.5" x2="251.5" y1="2949" y2="2949"/></g><!--class BillController--><g id="elem_BillController"><rect codeLine="26" fill="#FFFFFF" height="44" id="BillController" rx="2.5" ry="2.5" style="stroke:#000000;stroke-width:1.0;" width="123" x="110.5" y="3032"/><ellipse cx="123.5" cy="3046" fill="#FFFFFF" rx="9" ry="9" style="stroke:#000000;stroke-width:1.0;"/><path d="M125.8438,3041.6719 C124.9063,3041.2344 124.3125,3041.0938 123.4375,3041.0938 C120.8125,3041.0938 118.8125,3043.1719 118.8125,3045.8906 L118.8125,3047.0156 C118.8125,3049.5938 120.9219,3051.4844 123.8125,3051.4844 C125.0313,3051.4844 126.1875,3051.1875 126.9375,3050.6406 C127.5156,3050.2344 127.8438,3049.7813 127.8438,3049.3906 C127.8438,3048.9375 127.4531,3048.5469 126.9844,3048.5469 C126.7656,3048.5469 126.5625,3048.625 126.375,3048.8125 C125.9219,3049.2969 125.9219,3049.2969 125.7344,3049.3906 C125.3125,3049.6563 124.625,3049.7813 123.8594,3049.7813 C121.8125,3049.7813 120.5156,3048.6875 120.5156,3046.9844 L120.5156,3045.8906 C120.5156,3044.1094 121.7656,3042.7969 123.5,3042.7969 C124.0781,3042.7969 124.6875,3042.9531 125.1563,3043.2031 C125.6406,3043.4844 125.8125,3043.7031 125.9063,3044.1094 C125.9688,3044.5156 126,3044.6406 126.1406,3044.7656 C126.2813,3044.9063 126.5156,3045.0156 126.7344,3045.0156 C127,3045.0156 127.2656,3044.875 127.4375,3044.6563 C127.5469,3044.5 127.5781,3044.3125 127.5781,3043.8906 L127.5781,3042.4688 C127.5781,3042.0313 127.5625,3041.9063 127.4688,3041.75 C127.3125,3041.4844 127.0313,3041.3438 126.7344,3041.3438 C126.4375,3041.3438 126.2344,3041.4375 126.0156,3041.75 L125.8438,3041.6719 Z " fill="#000000"/><text fill="#000000" font-family="Verdana" font-size="14" lengthAdjust="spacing" textLength="95" x="135.5" y="3050.8467">BillController</text><line style="stroke:#000000;stroke-width:1.0;" x1="111.5" x2="232.5" y1="3060" y2="3060"/><line style="stroke:#000000;stroke-width:1.0;" x1="111.5" x2="232.5" y1="3068" y2="3068"/></g><!--class BillPositionController--><g id="elem_BillPositionController"><rect codeLine="28" fill="#FFFFFF" height="44" id="BillPositionController" rx="2.5" ry="2.5" style="stroke:#000000;stroke-width:1.0;" width="181" x="81.5" y="3111"/><ellipse cx="94.5" cy="3125" fill="#FFFFFF" rx="9" ry="9" style="stroke:#000000;stroke-width:1.0;"/><path d="M96.8438,3120.6719 C95.9063,3120.2344 95.3125,3120.0938 94.4375,3120.0938 C91.8125,3120.0938 89.8125,3122.1719 89.8125,3124.8906 L89.8125,3126.0156 C89.8125,3128.5938 91.9219,3130.4844 94.8125,3130.4844 C96.0313,3130.4844 97.1875,3130.1875 97.9375,3129.6406 C98.5156,3129.2344 98.8438,3128.7813 98.8438,3128.3906 C98.8438,3127.9375 98.4531,3127.5469 97.9844,3127.5469 C97.7656,3127.5469 97.5625,3127.625 97.375,3127.8125 C96.9219,3128.2969 96.9219,3128.2969 96.7344,3128.3906 C96.3125,3128.6563 95.625,3128.7813 94.8594,3128.7813 C92.8125,3128.7813 91.5156,3127.6875 91.5156,3125.9844 L91.5156,3124.8906 C91.5156,3123.1094 92.7656,3121.7969 94.5,3121.7969 C95.0781,3121.7969 95.6875,3121.9531 96.1563,3122.2031 C96.6406,3122.4844 96.8125,3122.7031 96.9063,3123.1094 C96.9688,3123.5156 97,3123.6406 97.1406,3123.7656 C97.2813,3123.9063 97.5156,3124.0156 97.7344,3124.0156 C98,3124.0156 98.2656,3123.875 98.4375,3123.6563 C98.5469,3123.5 98.5781,3123.3125 98.5781,3122.8906 L98.5781,3121.4688 C98.5781,3121.0313 98.5625,3120.9063 98.4688,3120.75 C98.3125,3120.4844 98.0313,3120.3438 97.7344,3120.3438 C97.4375,3120.3438 97.2344,3120.4375 97.0156,3120.75 L96.8438,3120.6719 Z " fill="#000000"/><text fill="#000000" font-family="Verdana" font-size="14" lengthAdjust="spacing" textLength="153" x="106.5" y="3129.8467">BillPositionController</text><line style="stroke:#000000;stroke-width:1.0;" x1="82.5" x2="261.5" y1="3139" y2="3139"/><line style="stroke:#000000;stroke-width:1.0;" x1="82.5" x2="261.5" y1="3147" y2="3147"/></g><!--class BillPositionRepository--><g id="elem_BillPositionRepository"><rect codeLine="29" fill="#FFFFFF" height="44" id="BillPositionRepository" rx="2.5" ry="2.5" style="stroke:#000000;stroke-width:1.0;" width="187" x="78.5" y="3230"/><ellipse cx="91.5" cy="3244" fill="#FFFFFF" rx="9" ry="9" style="stroke:#000000;stroke-width:1.0;"/><path d="M93.8438,3239.6719 C92.9063,3239.2344 92.3125,3239.0938 91.4375,3239.0938 C88.8125,3239.0938 86.8125,3241.1719 86.8125,3243.8906 L86.8125,3245.0156 C86.8125,3247.5938 88.9219,3249.4844 91.8125,3249.4844 C93.0313,3249.4844 94.1875,3249.1875 94.9375,3248.6406 C95.5156,3248.2344 95.8438,3247.7813 95.8438,3247.3906 C95.8438,3246.9375 95.4531,3246.5469 94.9844,3246.5469 C94.7656,3246.5469 94.5625,3246.625 94.375,3246.8125 C93.9219,3247.2969 93.9219,3247.2969 93.7344,3247.3906 C93.3125,3247.6563 92.625,3247.7813 91.8594,3247.7813 C89.8125,3247.7813 88.5156,3246.6875 88.5156,3244.9844 L88.5156,3243.8906 C88.5156,3242.1094 89.7656,3240.7969 91.5,3240.7969 C92.0781,3240.7969 92.6875,3240.9531 93.1563,3241.2031 C93.6406,3241.4844 93.8125,3241.7031 93.9063,3242.1094 C93.9688,3242.5156 94,3242.6406 94.1406,3242.7656 C94.2813,3242.9063 94.5156,3243.0156 94.7344,3243.0156 C95,3243.0156 95.2656,3242.875 95.4375,3242.6563 C95.5469,3242.5 95.5781,3242.3125 95.5781,3241.8906 L95.5781,3240.4688 C95.5781,3240.0313 95.5625,3239.9063 95.4688,3239.75 C95.3125,3239.4844 95.0313,3239.3438 94.7344,3239.3438 C94.4375,3239.3438 94.2344,3239.4375 94.0156,3239.75 L93.8438,3239.6719 Z " fill="#000000"/><text fill="#000000" font-family="Verdana" font-size="14" lengthAdjust="spacing" textLength="159" x="103.5" y="3248.8467">BillPositionRepository</text><line style="stroke:#000000;stroke-width:1.0;" x1="79.5" x2="264.5" y1="3258" y2="3258"/><line style="stroke:#000000;stroke-width:1.0;" x1="79.5" x2="264.5" y1="3266" y2="3266"/></g><!--class BillRepository--><g id="elem_BillRepository"><rect codeLine="30" fill="#FFFFFF" height="44" id="BillRepository" rx="2.5" ry="2.5" style="stroke:#000000;stroke-width:1.0;" width="129" x="107.5" y="3309"/><ellipse cx="120.5" cy="3323" fill="#FFFFFF" rx="9" ry="9" style="stroke:#000000;stroke-width:1.0;"/><path d="M122.8438,3318.6719 C121.9063,3318.2344 121.3125,3318.0938 120.4375,3318.0938 C117.8125,3318.0938 115.8125,3320.1719 115.8125,3322.8906 L115.8125,3324.0156 C115.8125,3326.5938 117.9219,3328.4844 120.8125,3328.4844 C122.0313,3328.4844 123.1875,3328.1875 123.9375,3327.6406 C124.5156,3327.2344 124.8438,3326.7813 124.8438,3326.3906 C124.8438,3325.9375 124.4531,3325.5469 123.9844,3325.5469 C123.7656,3325.5469 123.5625,3325.625 123.375,3325.8125 C122.9219,3326.2969 122.9219,3326.2969 122.7344,3326.3906 C122.3125,3326.6563 121.625,3326.7813 120.8594,3326.7813 C118.8125,3326.7813 117.5156,3325.6875 117.5156,3323.9844 L117.5156,3322.8906 C117.5156,3321.1094 118.7656,3319.7969 120.5,3319.7969 C121.0781,3319.7969 121.6875,3319.9531 122.1563,3320.2031 C122.6406,3320.4844 122.8125,3320.7031 122.9063,3321.1094 C122.9688,3321.5156 123,3321.6406 123.1406,3321.7656 C123.2813,3321.9063 123.5156,3322.0156 123.7344,3322.0156 C124,3322.0156 124.2656,3321.875 124.4375,3321.6563 C124.5469,3321.5 124.5781,3321.3125 124.5781,3320.8906 L124.5781,3319.4688 C124.5781,3319.0313 124.5625,3318.9063 124.4688,3318.75 C124.3125,3318.4844 124.0313,3318.3438 123.7344,3318.3438 C123.4375,3318.3438 123.2344,3318.4375 123.0156,3318.75 L122.8438,3318.6719 Z " fill="#000000"/><text fill="#000000" font-family="Verdana" font-size="14" lengthAdjust="spacing" textLength="101" x="132.5" y="3327.8467">BillRepository</text><line style="stroke:#000000;stroke-width:1.0;" x1="108.5" x2="235.5" y1="3337" y2="3337"/><line style="stroke:#000000;stroke-width:1.0;" x1="108.5" x2="235.5" y1="3345" y2="3345"/></g><!--class RTableService--><g id="elem_RTableService"><rect codeLine="34" fill="#FFFFFF" height="44" id="RTableService" rx="2.5" ry="2.5" style="stroke:#000000;stroke-width:1.0;" width="131" x="106.5" y="2093"/><ellipse cx="119.5" cy="2107" fill="#FFFFFF" rx="9" ry="9" style="stroke:#000000;stroke-width:1.0;"/><path d="M121.8438,2102.6719 C120.9063,2102.2344 120.3125,2102.0938 119.4375,2102.0938 C116.8125,2102.0938 114.8125,2104.1719 114.8125,2106.8906 L114.8125,2108.0156 C114.8125,2110.5938 116.9219,2112.4844 119.8125,2112.4844 C121.0313,2112.4844 122.1875,2112.1875 122.9375,2111.6406 C123.5156,2111.2344 123.8438,2110.7813 123.8438,2110.3906 C123.8438,2109.9375 123.4531,2109.5469 122.9844,2109.5469 C122.7656,2109.5469 122.5625,2109.625 122.375,2109.8125 C121.9219,2110.2969 121.9219,2110.2969 121.7344,2110.3906 C121.3125,2110.6563 120.625,2110.7813 119.8594,2110.7813 C117.8125,2110.7813 116.5156,2109.6875 116.5156,2107.9844 L116.5156,2106.8906 C116.5156,2105.1094 117.7656,2103.7969 119.5,2103.7969 C120.0781,2103.7969 120.6875,2103.9531 121.1563,2104.2031 C121.6406,2104.4844 121.8125,2104.7031 121.9063,2105.1094 C121.9688,2105.5156 122,2105.6406 122.1406,2105.7656 C122.2813,2105.9063 122.5156,2106.0156 122.7344,2106.0156 C123,2106.0156 123.2656,2105.875 123.4375,2105.6563 C123.5469,2105.5 123.5781,2105.3125 123.5781,2104.8906 L123.5781,2103.4688 C123.5781,2103.0313 123.5625,2102.9063 123.4688,2102.75 C123.3125,2102.4844 123.0313,2102.3438 122.7344,2102.3438 C122.4375,2102.3438 122.2344,2102.4375 122.0156,2102.75 L121.8438,2102.6719 Z " fill="#000000"/><text fill="#000000" font-family="Verdana" font-size="14" lengthAdjust="spacing" textLength="103" x="131.5" y="2111.8467">RTableService</text><line style="stroke:#000000;stroke-width:1.0;" x1="107.5" x2="236.5" y1="2121" y2="2121"/><line style="stroke:#000000;stroke-width:1.0;" x1="107.5" x2="236.5" y1="2129" y2="2129"/></g><!--class RTable--><g id="elem_RTable"><rect codeLine="35" fill="#FFFFFF" height="44" id="RTable" rx="2.5" ry="2.5" style="stroke:#000000;stroke-width:1.0;" width="78" x="133" y="2212"/><ellipse cx="146" cy="2226" fill="#FFFFFF" rx="9" ry="9" style="stroke:#000000;stroke-width:1.0;"/><path d="M144.7969,2226.875 L146.25,2226.875 L146.25,2226.9844 C146.25,2227.3906 146.2813,2227.5469 146.3594,2227.7031 C146.5156,2227.9531 146.7969,2228.1094 147.0938,2228.1094 C147.3438,2228.1094 147.6094,2227.9688 147.7656,2227.75 C147.8906,2227.5938 147.9219,2227.4375 147.9219,2226.9844 L147.9219,2225.0625 C147.9219,2224.9063 147.9219,2224.8594 147.9063,2224.7031 C147.8438,2224.2344 147.5313,2223.9219 147.0781,2223.9219 C146.8281,2223.9219 146.5625,2224.0625 146.3906,2224.2813 C146.2813,2224.4531 146.25,2224.6094 146.25,2225.0625 L146.25,2225.1875 L144.7969,2225.1875 L144.7969,2222.7813 L148.7813,2222.7813 L148.7813,2223.6406 C148.7813,2224.0469 148.8125,2224.2188 148.8906,2224.375 C149.0625,2224.625 149.3438,2224.7813 149.625,2224.7813 C149.8906,2224.7813 150.1563,2224.6406 150.3281,2224.4219 C150.4375,2224.25 150.4688,2224.1094 150.4688,2223.6406 L150.4688,2221.0938 L142.8438,2221.0938 C142.4063,2221.0938 142.2813,2221.1094 142.125,2221.2031 C141.875,2221.3594 141.7188,2221.6563 141.7188,2221.9375 C141.7188,2222.2188 141.8594,2222.4688 142.0781,2222.6406 C142.2344,2222.75 142.4219,2222.7813 142.8438,2222.7813 L143.0938,2222.7813 L143.0938,2229.2969 L142.8438,2229.2969 C142.4375,2229.2969 142.2813,2229.3125 142.125,2229.4219 C141.875,2229.5938 141.7188,2229.8594 141.7188,2230.1563 C141.7188,2230.4219 141.8594,2230.6719 142.0781,2230.8281 C142.2188,2230.9531 142.4531,2231 142.8438,2231 L150.8438,2231 L150.8438,2228.4219 C150.8438,2227.9844 150.8125,2227.8438 150.7344,2227.6875 C150.5625,2227.4375 150.2813,2227.2813 150,2227.2813 C149.7344,2227.2813 149.4688,2227.3906 149.2969,2227.6406 C149.1875,2227.7969 149.1563,2227.9375 149.1563,2228.4219 L149.1563,2229.2969 L144.7969,2229.2969 L144.7969,2226.875 Z " fill="#000000"/><text fill="#000000" font-family="Verdana" font-size="14" lengthAdjust="spacing" textLength="50" x="158" y="2230.8467">RTable</text><line style="stroke:#000000;stroke-width:1.0;" x1="134" x2="210" y1="2240" y2="2240"/><line style="stroke:#000000;stroke-width:1.0;" x1="134" x2="210" y1="2248" y2="2248"/></g><!--class RTableController--><g id="elem_RTableController"><rect codeLine="36" fill="#FFFFFF" height="44" id="RTableController" rx="2.5" ry="2.5" style="stroke:#000000;stroke-width:1.0;" width="151" x="96.5" y="2331"/><ellipse cx="109.5" cy="2345" fill="#FFFFFF" rx="9" ry="9" style="stroke:#000000;stroke-width:1.0;"/><path d="M111.8438,2340.6719 C110.9063,2340.2344 110.3125,2340.0938 109.4375,2340.0938 C106.8125,2340.0938 104.8125,2342.1719 104.8125,2344.8906 L104.8125,2346.0156 C104.8125,2348.5938 106.9219,2350.4844 109.8125,2350.4844 C111.0313,2350.4844 112.1875,2350.1875 112.9375,2349.6406 C113.5156,2349.2344 113.8438,2348.7813 113.8438,2348.3906 C113.8438,2347.9375 113.4531,2347.5469 112.9844,2347.5469 C112.7656,2347.5469 112.5625,2347.625 112.375,2347.8125 C111.9219,2348.2969 111.9219,2348.2969 111.7344,2348.3906 C111.3125,2348.6563 110.625,2348.7813 109.8594,2348.7813 C107.8125,2348.7813 106.5156,2347.6875 106.5156,2345.9844 L106.5156,2344.8906 C106.5156,2343.1094 107.7656,2341.7969 109.5,2341.7969 C110.0781,2341.7969 110.6875,2341.9531 111.1563,2342.2031 C111.6406,2342.4844 111.8125,2342.7031 111.9063,2343.1094 C111.9688,2343.5156 112,2343.6406 112.1406,2343.7656 C112.2813,2343.9063 112.5156,2344.0156 112.7344,2344.0156 C113,2344.0156 113.2656,2343.875 113.4375,2343.6563 C113.5469,2343.5 113.5781,2343.3125 113.5781,2342.8906 L113.5781,2341.4688 C113.5781,2341.0313 113.5625,2340.9063 113.4688,2340.75 C113.3125,2340.4844 113.0313,2340.3438 112.7344,2340.3438 C112.4375,2340.3438 112.2344,2340.4375 112.0156,2340.75 L111.8438,2340.6719 Z " fill="#000000"/><text fill="#000000" font-family="Verdana" font-size="14" lengthAdjust="spacing" textLength="123" x="121.5" y="2349.8467">RTableController</text><line style="stroke:#000000;stroke-width:1.0;" x1="97.5" x2="246.5" y1="2359" y2="2359"/><line style="stroke:#000000;stroke-width:1.0;" x1="97.5" x2="246.5" y1="2367" y2="2367"/></g><!--class RTableRepository--><g id="elem_RTableRepository"><rect codeLine="37" fill="#FFFFFF" height="44" id="RTableRepository" rx="2.5" ry="2.5" style="stroke:#000000;stroke-width:1.0;" width="157" x="93.5" y="2450"/><ellipse cx="106.5" cy="2464" fill="#FFFFFF" rx="9" ry="9" style="stroke:#000000;stroke-width:1.0;"/><path d="M108.8438,2459.6719 C107.9063,2459.2344 107.3125,2459.0938 106.4375,2459.0938 C103.8125,2459.0938 101.8125,2461.1719 101.8125,2463.8906 L101.8125,2465.0156 C101.8125,2467.5938 103.9219,2469.4844 106.8125,2469.4844 C108.0313,2469.4844 109.1875,2469.1875 109.9375,2468.6406 C110.5156,2468.2344 110.8438,2467.7813 110.8438,2467.3906 C110.8438,2466.9375 110.4531,2466.5469 109.9844,2466.5469 C109.7656,2466.5469 109.5625,2466.625 109.375,2466.8125 C108.9219,2467.2969 108.9219,2467.2969 108.7344,2467.3906 C108.3125,2467.6563 107.625,2467.7813 106.8594,2467.7813 C104.8125,2467.7813 103.5156,2466.6875 103.5156,2464.9844 L103.5156,2463.8906 C103.5156,2462.1094 104.7656,2460.7969 106.5,2460.7969 C107.0781,2460.7969 107.6875,2460.9531 108.1563,2461.2031 C108.6406,2461.4844 108.8125,2461.7031 108.9063,2462.1094 C108.9688,2462.5156 109,2462.6406 109.1406,2462.7656 C109.2813,2462.9063 109.5156,2463.0156 109.7344,2463.0156 C110,2463.0156 110.2656,2462.875 110.4375,2462.6563 C110.5469,2462.5 110.5781,2462.3125 110.5781,2461.8906 L110.5781,2460.4688 C110.5781,2460.0313 110.5625,2459.9063 110.4688,2459.75 C110.3125,2459.4844 110.0313,2459.3438 109.7344,2459.3438 C109.4375,2459.3438 109.2344,2459.4375 109.0156,2459.75 L108.8438,2459.6719 Z " fill="#000000"/><text fill="#000000" font-family="Verdana" font-size="14" lengthAdjust="spacing" textLength="129" x="118.5" y="2468.8467">RTableRepository</text><line style="stroke:#000000;stroke-width:1.0;" x1="94.5" x2="249.5" y1="2478" y2="2478"/><line style="stroke:#000000;stroke-width:1.0;" x1="94.5" x2="249.5" y1="2486" y2="2486"/></g><!--class RestaurantServerApplication--><g id="elem_RestaurantServerApplication"><rect codeLine="42" fill="#FFFFFF" height="44" id="RestaurantServerApplication" rx="2.5" ry="2.5" style="stroke:#000000;stroke-width:1.0;" width="237" x="53.5" y="1931"/><ellipse cx="66.5" cy="1945" fill="#FFFFFF" rx="9" ry="9" style="stroke:#000000;stroke-width:1.0;"/><path d="M68.8438,1940.6719 C67.9063,1940.2344 67.3125,1940.0938 66.4375,1940.0938 C63.8125,1940.0938 61.8125,1942.1719 61.8125,1944.8906 L61.8125,1946.0156 C61.8125,1948.5938 63.9219,1950.4844 66.8125,1950.4844 C68.0313,1950.4844 69.1875,1950.1875 69.9375,1949.6406 C70.5156,1949.2344 70.8438,1948.7813 70.8438,1948.3906 C70.8438,1947.9375 70.4531,1947.5469 69.9844,1947.5469 C69.7656,1947.5469 69.5625,1947.625 69.375,1947.8125 C68.9219,1948.2969 68.9219,1948.2969 68.7344,1948.3906 C68.3125,1948.6563 67.625,1948.7813 66.8594,1948.7813 C64.8125,1948.7813 63.5156,1947.6875 63.5156,1945.9844 L63.5156,1944.8906 C63.5156,1943.1094 64.7656,1941.7969 66.5,1941.7969 C67.0781,1941.7969 67.6875,1941.9531 68.1563,1942.2031 C68.6406,1942.4844 68.8125,1942.7031 68.9063,1943.1094 C68.9688,1943.5156 69,1943.6406 69.1406,1943.7656 C69.2813,1943.9063 69.5156,1944.0156 69.7344,1944.0156 C70,1944.0156 70.2656,1943.875 70.4375,1943.6563 C70.5469,1943.5 70.5781,1943.3125 70.5781,1942.8906 L70.5781,1941.4688 C70.5781,1941.0313 70.5625,1940.9063 70.4688,1940.75 C70.3125,1940.4844 70.0313,1940.3438 69.7344,1940.3438 C69.4375,1940.3438 69.2344,1940.4375 69.0156,1940.75 L68.8438,1940.6719 Z " fill="#000000"/><text fill="#000000" font-family="Verdana" font-size="14" lengthAdjust="spacing" textLength="209" x="78.5" y="1949.8467">RestaurantServerApplication</text><line style="stroke:#000000;stroke-width:1.0;" x1="54.5" x2="289.5" y1="1959" y2="1959"/><line style="stroke:#000000;stroke-width:1.0;" x1="54.5" x2="289.5" y1="1967" y2="1967"/></g><!--class Dish--><g id="elem_Dish"><rect codeLine="41" fill="#FFFFFF" height="44" id="Dish" rx="2.5" ry="2.5" style="stroke:#000000;stroke-width:1.0;" width="59" x="142.5" y="1495"/><ellipse cx="155.5" cy="1509" fill="#FFFFFF" rx="9" ry="9" style="stroke:#000000;stroke-width:1.0;"/><path d="M154.2969,1509.875 L155.75,1509.875 L155.75,1509.9844 C155.75,1510.3906 155.7813,1510.5469 155.8594,1510.7031 C156.0156,1510.9531 156.2969,1511.1094 156.5938,1511.1094 C156.8438,1511.1094 157.1094,1510.9688 157.2656,1510.75 C157.3906,1510.5938 157.4219,1510.4375 157.4219,1509.9844 L157.4219,1508.0625 C157.4219,1507.9063 157.4219,1507.8594 157.4063,1507.7031 C157.3438,1507.2344 157.0313,1506.9219 156.5781,1506.9219 C156.3281,1506.9219 156.0625,1507.0625 155.8906,1507.2813 C155.7813,1507.4531 155.75,1507.6094 155.75,1508.0625 L155.75,1508.1875 L154.2969,1508.1875 L154.2969,1505.7813 L158.2813,1505.7813 L158.2813,1506.6406 C158.2813,1507.0469 158.3125,1507.2188 158.3906,1507.375 C158.5625,1507.625 158.8438,1507.7813 159.125,1507.7813 C159.3906,1507.7813 159.6563,1507.6406 159.8281,1507.4219 C159.9375,1507.25 159.9688,1507.1094 159.9688,1506.6406 L159.9688,1504.0938 L152.3438,1504.0938 C151.9063,1504.0938 151.7813,1504.1094 151.625,1504.2031 C151.375,1504.3594 151.2188,1504.6563 151.2188,1504.9375 C151.2188,1505.2188 151.3594,1505.4688 151.5781,1505.6406 C151.7344,1505.75 151.9219,1505.7813 152.3438,1505.7813 L152.5938,1505.7813 L152.5938,1512.2969 L152.3438,1512.2969 C151.9375,1512.2969 151.7813,1512.3125 151.625,1512.4219 C151.375,1512.5938 151.2188,1512.8594 151.2188,1513.1563 C151.2188,1513.4219 151.3594,1513.6719 151.5781,1513.8281 C151.7188,1513.9531 151.9531,1514 152.3438,1514 L160.3438,1514 L160.3438,1511.4219 C160.3438,1510.9844 160.3125,1510.8438 160.2344,1510.6875 C160.0625,1510.4375 159.7813,1510.2813 159.5,1510.2813 C159.2344,1510.2813 158.9688,1510.3906 158.7969,1510.6406 C158.6875,1510.7969 158.6563,1510.9375 158.6563,1511.4219 L158.6563,1512.2969 L154.2969,1512.2969 L154.2969,1509.875 Z " fill="#000000"/><text fill="#000000" font-family="Verdana" font-size="14" lengthAdjust="spacing" textLength="31" x="167.5" y="1513.8467">Dish</text><line style="stroke:#000000;stroke-width:1.0;" x1="143.5" x2="200.5" y1="1523" y2="1523"/><line style="stroke:#000000;stroke-width:1.0;" x1="143.5" x2="200.5" y1="1531" y2="1531"/></g><!--class DishRepository--><g id="elem_DishRepository"><rect codeLine="43" fill="#FFFFFF" height="44" id="DishRepository" rx="2.5" ry="2.5" style="stroke:#000000;stroke-width:1.0;" width="138" x="103" y="1614"/><ellipse cx="116" cy="1628" fill="#FFFFFF" rx="9" ry="9" style="stroke:#000000;stroke-width:1.0;"/><path d="M118.3438,1623.6719 C117.4063,1623.2344 116.8125,1623.0938 115.9375,1623.0938 C113.3125,1623.0938 111.3125,1625.1719 111.3125,1627.8906 L111.3125,1629.0156 C111.3125,1631.5938 113.4219,1633.4844 116.3125,1633.4844 C117.5313,1633.4844 118.6875,1633.1875 119.4375,1632.6406 C120.0156,1632.2344 120.3438,1631.7813 120.3438,1631.3906 C120.3438,1630.9375 119.9531,1630.5469 119.4844,1630.5469 C119.2656,1630.5469 119.0625,1630.625 118.875,1630.8125 C118.4219,1631.2969 118.4219,1631.2969 118.2344,1631.3906 C117.8125,1631.6563 117.125,1631.7813 116.3594,1631.7813 C114.3125,1631.7813 113.0156,1630.6875 113.0156,1628.9844 L113.0156,1627.8906 C113.0156,1626.1094 114.2656,1624.7969 116,1624.7969 C116.5781,1624.7969 117.1875,1624.9531 117.6563,1625.2031 C118.1406,1625.4844 118.3125,1625.7031 118.4063,1626.1094 C118.4688,1626.5156 118.5,1626.6406 118.6406,1626.7656 C118.7813,1626.9063 119.0156,1627.0156 119.2344,1627.0156 C119.5,1627.0156 119.7656,1626.875 119.9375,1626.6563 C120.0469,1626.5 120.0781,1626.3125 120.0781,1625.8906 L120.0781,1624.4688 C120.0781,1624.0313 120.0625,1623.9063 119.9688,1623.75 C119.8125,1623.4844 119.5313,1623.3438 119.2344,1623.3438 C118.9375,1623.3438 118.7344,1623.4375 118.5156,1623.75 L118.3438,1623.6719 Z " fill="#000000"/><text fill="#000000" font-family="Verdana" font-size="14" lengthAdjust="spacing" textLength="110" x="128" y="1632.8467">DishRepository</text><line style="stroke:#000000;stroke-width:1.0;" x1="104" x2="240" y1="1642" y2="1642"/><line style="stroke:#000000;stroke-width:1.0;" x1="104" x2="240" y1="1650" y2="1650"/></g><!--class DishService--><g id="elem_DishService"><rect codeLine="44" fill="#FFFFFF" height="44" id="DishService" rx="2.5" ry="2.5" style="stroke:#000000;stroke-width:1.0;" width="112" x="116" y="1733"/><ellipse cx="129" cy="1747" fill="#FFFFFF" rx="9" ry="9" style="stroke:#000000;stroke-width:1.0;"/><path d="M131.3438,1742.6719 C130.4063,1742.2344 129.8125,1742.0938 128.9375,1742.0938 C126.3125,1742.0938 124.3125,1744.1719 124.3125,1746.8906 L124.3125,1748.0156 C124.3125,1750.5938 126.4219,1752.4844 129.3125,1752.4844 C130.5313,1752.4844 131.6875,1752.1875 132.4375,1751.6406 C133.0156,1751.2344 133.3438,1750.7813 133.3438,1750.3906 C133.3438,1749.9375 132.9531,1749.5469 132.4844,1749.5469 C132.2656,1749.5469 132.0625,1749.625 131.875,1749.8125 C131.4219,1750.2969 131.4219,1750.2969 131.2344,1750.3906 C130.8125,1750.6563 130.125,1750.7813 129.3594,1750.7813 C127.3125,1750.7813 126.0156,1749.6875 126.0156,1747.9844 L126.0156,1746.8906 C126.0156,1745.1094 127.2656,1743.7969 129,1743.7969 C129.5781,1743.7969 130.1875,1743.9531 130.6563,1744.2031 C131.1406,1744.4844 131.3125,1744.7031 131.4063,1745.1094 C131.4688,1745.5156 131.5,1745.6406 131.6406,1745.7656 C131.7813,1745.9063 132.0156,1746.0156 132.2344,1746.0156 C132.5,1746.0156 132.7656,1745.875 132.9375,1745.6563 C133.0469,1745.5 133.0781,1745.3125 133.0781,1744.8906 L133.0781,1743.4688 C133.0781,1743.0313 133.0625,1742.9063 132.9688,1742.75 C132.8125,1742.4844 132.5313,1742.3438 132.2344,1742.3438 C131.9375,1742.3438 131.7344,1742.4375 131.5156,1742.75 L131.3438,1742.6719 Z " fill="#000000"/><text fill="#000000" font-family="Verdana" font-size="14" lengthAdjust="spacing" textLength="84" x="141" y="1751.8467">DishService</text><line style="stroke:#000000;stroke-width:1.0;" x1="117" x2="227" y1="1761" y2="1761"/><line style="stroke:#000000;stroke-width:1.0;" x1="117" x2="227" y1="1769" y2="1769"/></g><!--class DishController--><g id="elem_DishController"><rect codeLine="45" fill="#FFFFFF" height="44" id="DishController" rx="2.5" ry="2.5" style="stroke:#000000;stroke-width:1.0;" width="132" x="106" y="1852"/><ellipse cx="119" cy="1866" fill="#FFFFFF" rx="9" ry="9" style="stroke:#000000;stroke-width:1.0;"/><path d="M121.3438,1861.6719 C120.4063,1861.2344 119.8125,1861.0938 118.9375,1861.0938 C116.3125,1861.0938 114.3125,1863.1719 114.3125,1865.8906 L114.3125,1867.0156 C114.3125,1869.5938 116.4219,1871.4844 119.3125,1871.4844 C120.5313,1871.4844 121.6875,1871.1875 122.4375,1870.6406 C123.0156,1870.2344 123.3438,1869.7813 123.3438,1869.3906 C123.3438,1868.9375 122.9531,1868.5469 122.4844,1868.5469 C122.2656,1868.5469 122.0625,1868.625 121.875,1868.8125 C121.4219,1869.2969 121.4219,1869.2969 121.2344,1869.3906 C120.8125,1869.6563 120.125,1869.7813 119.3594,1869.7813 C117.3125,1869.7813 116.0156,1868.6875 116.0156,1866.9844 L116.0156,1865.8906 C116.0156,1864.1094 117.2656,1862.7969 119,1862.7969 C119.5781,1862.7969 120.1875,1862.9531 120.6563,1863.2031 C121.1406,1863.4844 121.3125,1863.7031 121.4063,1864.1094 C121.4688,1864.5156 121.5,1864.6406 121.6406,1864.7656 C121.7813,1864.9063 122.0156,1865.0156 122.2344,1865.0156 C122.5,1865.0156 122.7656,1864.875 122.9375,1864.6563 C123.0469,1864.5 123.0781,1864.3125 123.0781,1863.8906 L123.0781,1862.4688 C123.0781,1862.0313 123.0625,1861.9063 122.9688,1861.75 C122.8125,1861.4844 122.5313,1861.3438 122.2344,1861.3438 C121.9375,1861.3438 121.7344,1861.4375 121.5156,1861.75 L121.3438,1861.6719 Z " fill="#000000"/><text fill="#000000" font-family="Verdana" font-size="14" lengthAdjust="spacing" textLength="104" x="131" y="1870.8467">DishController</text><line style="stroke:#000000;stroke-width:1.0;" x1="107" x2="237" y1="1880" y2="1880"/><line style="stroke:#000000;stroke-width:1.0;" x1="107" x2="237" y1="1888" y2="1888"/></g><!--class ReservationRepository--><g id="elem_ReservationRepository"><rect codeLine="49" fill="#FFFFFF" height="44" id="ReservationRepository" rx="2.5" ry="2.5" style="stroke:#000000;stroke-width:1.0;" width="193" x="75.5" y="952"/><ellipse cx="88.5" cy="966" fill="#FFFFFF" rx="9" ry="9" style="stroke:#000000;stroke-width:1.0;"/><path d="M90.8438,961.6719 C89.9063,961.2344 89.3125,961.0938 88.4375,961.0938 C85.8125,961.0938 83.8125,963.1719 83.8125,965.8906 L83.8125,967.0156 C83.8125,969.5938 85.9219,971.4844 88.8125,971.4844 C90.0313,971.4844 91.1875,971.1875 91.9375,970.6406 C92.5156,970.2344 92.8438,969.7813 92.8438,969.3906 C92.8438,968.9375 92.4531,968.5469 91.9844,968.5469 C91.7656,968.5469 91.5625,968.625 91.375,968.8125 C90.9219,969.2969 90.9219,969.2969 90.7344,969.3906 C90.3125,969.6563 89.625,969.7813 88.8594,969.7813 C86.8125,969.7813 85.5156,968.6875 85.5156,966.9844 L85.5156,965.8906 C85.5156,964.1094 86.7656,962.7969 88.5,962.7969 C89.0781,962.7969 89.6875,962.9531 90.1563,963.2031 C90.6406,963.4844 90.8125,963.7031 90.9063,964.1094 C90.9688,964.5156 91,964.6406 91.1406,964.7656 C91.2813,964.9063 91.5156,965.0156 91.7344,965.0156 C92,965.0156 92.2656,964.875 92.4375,964.6563 C92.5469,964.5 92.5781,964.3125 92.5781,963.8906 L92.5781,962.4688 C92.5781,962.0313 92.5625,961.9063 92.4688,961.75 C92.3125,961.4844 92.0313,961.3438 91.7344,961.3438 C91.4375,961.3438 91.2344,961.4375 91.0156,961.75 L90.8438,961.6719 Z " fill="#000000"/><text fill="#000000" font-family="Verdana" font-size="14" lengthAdjust="spacing" textLength="165" x="100.5" y="970.8467">ReservationRepository</text><line style="stroke:#000000;stroke-width:1.0;" x1="76.5" x2="267.5" y1="980" y2="980"/><line style="stroke:#000000;stroke-width:1.0;" x1="76.5" x2="267.5" y1="988" y2="988"/></g><!--class Reservation--><g id="elem_Reservation"><rect codeLine="50" fill="#FFFFFF" height="44" id="Reservation" rx="2.5" ry="2.5" style="stroke:#000000;stroke-width:1.0;" width="114" x="115" y="1071"/><ellipse cx="128" cy="1085" fill="#FFFFFF" rx="9" ry="9" style="stroke:#000000;stroke-width:1.0;"/><path d="M126.7969,1085.875 L128.25,1085.875 L128.25,1085.9844 C128.25,1086.3906 128.2813,1086.5469 128.3594,1086.7031 C128.5156,1086.9531 128.7969,1087.1094 129.0938,1087.1094 C129.3438,1087.1094 129.6094,1086.9688 129.7656,1086.75 C129.8906,1086.5938 129.9219,1086.4375 129.9219,1085.9844 L129.9219,1084.0625 C129.9219,1083.9063 129.9219,1083.8594 129.9063,1083.7031 C129.8438,1083.2344 129.5313,1082.9219 129.0781,1082.9219 C128.8281,1082.9219 128.5625,1083.0625 128.3906,1083.2813 C128.2813,1083.4531 128.25,1083.6094 128.25,1084.0625 L128.25,1084.1875 L126.7969,1084.1875 L126.7969,1081.7813 L130.7813,1081.7813 L130.7813,1082.6406 C130.7813,1083.0469 130.8125,1083.2188 130.8906,1083.375 C131.0625,1083.625 131.3438,1083.7813 131.625,1083.7813 C131.8906,1083.7813 132.1563,1083.6406 132.3281,1083.4219 C132.4375,1083.25 132.4688,1083.1094 132.4688,1082.6406 L132.4688,1080.0938 L124.8438,1080.0938 C124.4063,1080.0938 124.2813,1080.1094 124.125,1080.2031 C123.875,1080.3594 123.7188,1080.6563 123.7188,1080.9375 C123.7188,1081.2188 123.8594,1081.4688 124.0781,1081.6406 C124.2344,1081.75 124.4219,1081.7813 124.8438,1081.7813 L125.0938,1081.7813 L125.0938,1088.2969 L124.8438,1088.2969 C124.4375,1088.2969 124.2813,1088.3125 124.125,1088.4219 C123.875,1088.5938 123.7188,1088.8594 123.7188,1089.1563 C123.7188,1089.4219 123.8594,1089.6719 124.0781,1089.8281 C124.2188,1089.9531 124.4531,1090 124.8438,1090 L132.8438,1090 L132.8438,1087.4219 C132.8438,1086.9844 132.8125,1086.8438 132.7344,1086.6875 C132.5625,1086.4375 132.2813,1086.2813 132,1086.2813 C131.7344,1086.2813 131.4688,1086.3906 131.2969,1086.6406 C131.1875,1086.7969 131.1563,1086.9375 131.1563,1087.4219 L131.1563,1088.2969 L126.7969,1088.2969 L126.7969,1085.875 Z " fill="#000000"/><text fill="#000000" font-family="Verdana" font-size="14" lengthAdjust="spacing" textLength="86" x="140" y="1089.8467">Reservation</text><line style="stroke:#000000;stroke-width:1.0;" x1="116" x2="228" y1="1099" y2="1099"/><line style="stroke:#000000;stroke-width:1.0;" x1="116" x2="228" y1="1107" y2="1107"/></g><!--class ReservationService--><g id="elem_ReservationService"><rect codeLine="51" fill="#FFFFFF" height="44" id="ReservationService" rx="2.5" ry="2.5" style="stroke:#000000;stroke-width:1.0;" width="167" x="88.5" y="1190"/><ellipse cx="101.5" cy="1204" fill="#FFFFFF" rx="9" ry="9" style="stroke:#000000;stroke-width:1.0;"/><path d="M103.8438,1199.6719 C102.9063,1199.2344 102.3125,1199.0938 101.4375,1199.0938 C98.8125,1199.0938 96.8125,1201.1719 96.8125,1203.8906 L96.8125,1205.0156 C96.8125,1207.5938 98.9219,1209.4844 101.8125,1209.4844 C103.0313,1209.4844 104.1875,1209.1875 104.9375,1208.6406 C105.5156,1208.2344 105.8438,1207.7813 105.8438,1207.3906 C105.8438,1206.9375 105.4531,1206.5469 104.9844,1206.5469 C104.7656,1206.5469 104.5625,1206.625 104.375,1206.8125 C103.9219,1207.2969 103.9219,1207.2969 103.7344,1207.3906 C103.3125,1207.6563 102.625,1207.7813 101.8594,1207.7813 C99.8125,1207.7813 98.5156,1206.6875 98.5156,1204.9844 L98.5156,1203.8906 C98.5156,1202.1094 99.7656,1200.7969 101.5,1200.7969 C102.0781,1200.7969 102.6875,1200.9531 103.1563,1201.2031 C103.6406,1201.4844 103.8125,1201.7031 103.9063,1202.1094 C103.9688,1202.5156 104,1202.6406 104.1406,1202.7656 C104.2813,1202.9063 104.5156,1203.0156 104.7344,1203.0156 C105,1203.0156 105.2656,1202.875 105.4375,1202.6563 C105.5469,1202.5 105.5781,1202.3125 105.5781,1201.8906 L105.5781,1200.4688 C105.5781,1200.0313 105.5625,1199.9063 105.4688,1199.75 C105.3125,1199.4844 105.0313,1199.3438 104.7344,1199.3438 C104.4375,1199.3438 104.2344,1199.4375 104.0156,1199.75 L103.8438,1199.6719 Z " fill="#000000"/><text fill="#000000" font-family="Verdana" font-size="14" lengthAdjust="spacing" textLength="139" x="113.5" y="1208.8467">ReservationService</text><line style="stroke:#000000;stroke-width:1.0;" x1="89.5" x2="254.5" y1="1218" y2="1218"/><line style="stroke:#000000;stroke-width:1.0;" x1="89.5" x2="254.5" y1="1226" y2="1226"/></g><!--class ReservationController--><g id="elem_ReservationController"><rect codeLine="52" fill="#FFFFFF" height="44" id="ReservationController" rx="2.5" ry="2.5" style="stroke:#000000;stroke-width:1.0;" width="187" x="78.5" y="1309"/><ellipse cx="91.5" cy="1323" fill="#FFFFFF" rx="9" ry="9" style="stroke:#000000;stroke-width:1.0;"/><path d="M93.8438,1318.6719 C92.9063,1318.2344 92.3125,1318.0938 91.4375,1318.0938 C88.8125,1318.0938 86.8125,1320.1719 86.8125,1322.8906 L86.8125,1324.0156 C86.8125,1326.5938 88.9219,1328.4844 91.8125,1328.4844 C93.0313,1328.4844 94.1875,1328.1875 94.9375,1327.6406 C95.5156,1327.2344 95.8438,1326.7813 95.8438,1326.3906 C95.8438,1325.9375 95.4531,1325.5469 94.9844,1325.5469 C94.7656,1325.5469 94.5625,1325.625 94.375,1325.8125 C93.9219,1326.2969 93.9219,1326.2969 93.7344,1326.3906 C93.3125,1326.6563 92.625,1326.7813 91.8594,1326.7813 C89.8125,1326.7813 88.5156,1325.6875 88.5156,1323.9844 L88.5156,1322.8906 C88.5156,1321.1094 89.7656,1319.7969 91.5,1319.7969 C92.0781,1319.7969 92.6875,1319.9531 93.1563,1320.2031 C93.6406,1320.4844 93.8125,1320.7031 93.9063,1321.1094 C93.9688,1321.5156 94,1321.6406 94.1406,1321.7656 C94.2813,1321.9063 94.5156,1322.0156 94.7344,1322.0156 C95,1322.0156 95.2656,1321.875 95.4375,1321.6563 C95.5469,1321.5 95.5781,1321.3125 95.5781,1320.8906 L95.5781,1319.4688 C95.5781,1319.0313 95.5625,1318.9063 95.4688,1318.75 C95.3125,1318.4844 95.0313,1318.3438 94.7344,1318.3438 C94.4375,1318.3438 94.2344,1318.4375 94.0156,1318.75 L93.8438,1318.6719 Z " fill="#000000"/><text fill="#000000" font-family="Verdana" font-size="14" lengthAdjust="spacing" textLength="159" x="103.5" y="1327.8467">ReservationController</text><line style="stroke:#000000;stroke-width:1.0;" x1="79.5" x2="264.5" y1="1337" y2="1337"/><line style="stroke:#000000;stroke-width:1.0;" x1="79.5" x2="264.5" y1="1345" y2="1345"/></g><!--class LoginForm--><g id="elem_LoginForm"><rect codeLine="61" fill="#FFFFFF" height="44" id="LoginForm" rx="2.5" ry="2.5" style="stroke:#000000;stroke-width:1.0;" width="104" x="120" y="211"/><ellipse cx="133" cy="225" fill="#FFFFFF" rx="9" ry="9" style="stroke:#000000;stroke-width:1.0;"/><path d="M135.3438,220.6719 C134.4063,220.2344 133.8125,220.0938 132.9375,220.0938 C130.3125,220.0938 128.3125,222.1719 128.3125,224.8906 L128.3125,226.0156 C128.3125,228.5938 130.4219,230.4844 133.3125,230.4844 C134.5313,230.4844 135.6875,230.1875 136.4375,229.6406 C137.0156,229.2344 137.3438,228.7813 137.3438,228.3906 C137.3438,227.9375 136.9531,227.5469 136.4844,227.5469 C136.2656,227.5469 136.0625,227.625 135.875,227.8125 C135.4219,228.2969 135.4219,228.2969 135.2344,228.3906 C134.8125,228.6563 134.125,228.7813 133.3594,228.7813 C131.3125,228.7813 130.0156,227.6875 130.0156,225.9844 L130.0156,224.8906 C130.0156,223.1094 131.2656,221.7969 133,221.7969 C133.5781,221.7969 134.1875,221.9531 134.6563,222.2031 C135.1406,222.4844 135.3125,222.7031 135.4063,223.1094 C135.4688,223.5156 135.5,223.6406 135.6406,223.7656 C135.7813,223.9063 136.0156,224.0156 136.2344,224.0156 C136.5,224.0156 136.7656,223.875 136.9375,223.6563 C137.0469,223.5 137.0781,223.3125 137.0781,222.8906 L137.0781,221.4688 C137.0781,221.0313 137.0625,220.9063 136.9688,220.75 C136.8125,220.4844 136.5313,220.3438 136.2344,220.3438 C135.9375,220.3438 135.7344,220.4375 135.5156,220.75 L135.3438,220.6719 Z " fill="#000000"/><text fill="#000000" font-family="Verdana" font-size="14" lengthAdjust="spacing" textLength="76" x="145" y="229.8467">LoginForm</text><line style="stroke:#000000;stroke-width:1.0;" x1="121" x2="223" y1="239" y2="239"/><line style="stroke:#000000;stroke-width:1.0;" x1="121" x2="223" y1="247" y2="247"/></g><!--class SignUpForm--><g id="elem_SignUpForm"><rect codeLine="62" fill="#FFFFFF" height="44" id="SignUpForm" rx="2.5" ry="2.5" style="stroke:#000000;stroke-width:1.0;" width="115" x="114.5" y="290"/><ellipse cx="127.5" cy="304" fill="#FFFFFF" rx="9" ry="9" style="stroke:#000000;stroke-width:1.0;"/><path d="M129.8438,299.6719 C128.9063,299.2344 128.3125,299.0938 127.4375,299.0938 C124.8125,299.0938 122.8125,301.1719 122.8125,303.8906 L122.8125,305.0156 C122.8125,307.5938 124.9219,309.4844 127.8125,309.4844 C129.0313,309.4844 130.1875,309.1875 130.9375,308.6406 C131.5156,308.2344 131.8438,307.7813 131.8438,307.3906 C131.8438,306.9375 131.4531,306.5469 130.9844,306.5469 C130.7656,306.5469 130.5625,306.625 130.375,306.8125 C129.9219,307.2969 129.9219,307.2969 129.7344,307.3906 C129.3125,307.6563 128.625,307.7813 127.8594,307.7813 C125.8125,307.7813 124.5156,306.6875 124.5156,304.9844 L124.5156,303.8906 C124.5156,302.1094 125.7656,300.7969 127.5,300.7969 C128.0781,300.7969 128.6875,300.9531 129.1563,301.2031 C129.6406,301.4844 129.8125,301.7031 129.9063,302.1094 C129.9688,302.5156 130,302.6406 130.1406,302.7656 C130.2813,302.9063 130.5156,303.0156 130.7344,303.0156 C131,303.0156 131.2656,302.875 131.4375,302.6563 C131.5469,302.5 131.5781,302.3125 131.5781,301.8906 L131.5781,300.4688 C131.5781,300.0313 131.5625,299.9063 131.4688,299.75 C131.3125,299.4844 131.0313,299.3438 130.7344,299.3438 C130.4375,299.3438 130.2344,299.4375 130.0156,299.75 L129.8438,299.6719 Z " fill="#000000"/><text fill="#000000" font-family="Verdana" font-size="14" lengthAdjust="spacing" textLength="87" x="139.5" y="308.8467">SignUpForm</text><line style="stroke:#000000;stroke-width:1.0;" x1="115.5" x2="228.5" y1="318" y2="318"/><line style="stroke:#000000;stroke-width:1.0;" x1="115.5" x2="228.5" y1="326" y2="326"/></g><!--class JwtResponse--><g id="elem_JwtResponse"><rect codeLine="56" fill="#FFFFFF" height="44" id="JwtResponse" rx="2.5" ry="2.5" style="stroke:#000000;stroke-width:1.0;" width="120" x="112" y="132"/><ellipse cx="125" cy="146" fill="#FFFFFF" rx="9" ry="9" style="stroke:#000000;stroke-width:1.0;"/><path d="M127.3438,141.6719 C126.4063,141.2344 125.8125,141.0938 124.9375,141.0938 C122.3125,141.0938 120.3125,143.1719 120.3125,145.8906 L120.3125,147.0156 C120.3125,149.5938 122.4219,151.4844 125.3125,151.4844 C126.5313,151.4844 127.6875,151.1875 128.4375,150.6406 C129.0156,150.2344 129.3438,149.7813 129.3438,149.3906 C129.3438,148.9375 128.9531,148.5469 128.4844,148.5469 C128.2656,148.5469 128.0625,148.625 127.875,148.8125 C127.4219,149.2969 127.4219,149.2969 127.2344,149.3906 C126.8125,149.6563 126.125,149.7813 125.3594,149.7813 C123.3125,149.7813 122.0156,148.6875 122.0156,146.9844 L122.0156,145.8906 C122.0156,144.1094 123.2656,142.7969 125,142.7969 C125.5781,142.7969 126.1875,142.9531 126.6563,143.2031 C127.1406,143.4844 127.3125,143.7031 127.4063,144.1094 C127.4688,144.5156 127.5,144.6406 127.6406,144.7656 C127.7813,144.9063 128.0156,145.0156 128.2344,145.0156 C128.5,145.0156 128.7656,144.875 128.9375,144.6563 C129.0469,144.5 129.0781,144.3125 129.0781,143.8906 L129.0781,142.4688 C129.0781,142.0313 129.0625,141.9063 128.9688,141.75 C128.8125,141.4844 128.5313,141.3438 128.2344,141.3438 C127.9375,141.3438 127.7344,141.4375 127.5156,141.75 L127.3438,141.6719 Z " fill="#000000"/><text fill="#000000" font-family="Verdana" font-size="14" lengthAdjust="spacing" textLength="92" x="137" y="150.8467">JwtResponse</text><line style="stroke:#000000;stroke-width:1.0;" x1="113" x2="231" y1="160" y2="160"/><line style="stroke:#000000;stroke-width:1.0;" x1="113" x2="231" y1="168" y2="168"/></g><!--class MailService--><g id="elem_MailService"><rect codeLine="57" fill="#FFFFFF" height="44" id="MailService" rx="2.5" ry="2.5" style="stroke:#000000;stroke-width:1.0;" width="109" x="117.5" y="409"/><ellipse cx="130.5" cy="423" fill="#FFFFFF" rx="9" ry="9" style="stroke:#000000;stroke-width:1.0;"/><path d="M132.8438,418.6719 C131.9063,418.2344 131.3125,418.0938 130.4375,418.0938 C127.8125,418.0938 125.8125,420.1719 125.8125,422.8906 L125.8125,424.0156 C125.8125,426.5938 127.9219,428.4844 130.8125,428.4844 C132.0313,428.4844 133.1875,428.1875 133.9375,427.6406 C134.5156,427.2344 134.8438,426.7813 134.8438,426.3906 C134.8438,425.9375 134.4531,425.5469 133.9844,425.5469 C133.7656,425.5469 133.5625,425.625 133.375,425.8125 C132.9219,426.2969 132.9219,426.2969 132.7344,426.3906 C132.3125,426.6563 131.625,426.7813 130.8594,426.7813 C128.8125,426.7813 127.5156,425.6875 127.5156,423.9844 L127.5156,422.8906 C127.5156,421.1094 128.7656,419.7969 130.5,419.7969 C131.0781,419.7969 131.6875,419.9531 132.1563,420.2031 C132.6406,420.4844 132.8125,420.7031 132.9063,421.1094 C132.9688,421.5156 133,421.6406 133.1406,421.7656 C133.2813,421.9063 133.5156,422.0156 133.7344,422.0156 C134,422.0156 134.2656,421.875 134.4375,421.6563 C134.5469,421.5 134.5781,421.3125 134.5781,420.8906 L134.5781,419.4688 C134.5781,419.0313 134.5625,418.9063 134.4688,418.75 C134.3125,418.4844 134.0313,418.3438 133.7344,418.3438 C133.4375,418.3438 133.2344,418.4375 133.0156,418.75 L132.8438,418.6719 Z " fill="#000000"/><text fill="#000000" font-family="Verdana" font-size="14" lengthAdjust="spacing" textLength="81" x="142.5" y="427.8467">MailService</text><line style="stroke:#000000;stroke-width:1.0;" x1="118.5" x2="225.5" y1="437" y2="437"/><line style="stroke:#000000;stroke-width:1.0;" x1="118.5" x2="225.5" y1="445" y2="445"/></g><!--class AuthController--><g id="elem_AuthController"><rect codeLine="58" fill="#FFFFFF" height="44" id="AuthController" rx="2.5" ry="2.5" style="stroke:#000000;stroke-width:1.0;" width="135" x="104.5" y="528"/><ellipse cx="117.5" cy="542" fill="#FFFFFF" rx="9" ry="9" style="stroke:#000000;stroke-width:1.0;"/><path d="M119.8438,537.6719 C118.9063,537.2344 118.3125,537.0938 117.4375,537.0938 C114.8125,537.0938 112.8125,539.1719 112.8125,541.8906 L112.8125,543.0156 C112.8125,545.5938 114.9219,547.4844 117.8125,547.4844 C119.0313,547.4844 120.1875,547.1875 120.9375,546.6406 C121.5156,546.2344 121.8438,545.7813 121.8438,545.3906 C121.8438,544.9375 121.4531,544.5469 120.9844,544.5469 C120.7656,544.5469 120.5625,544.625 120.375,544.8125 C119.9219,545.2969 119.9219,545.2969 119.7344,545.3906 C119.3125,545.6563 118.625,545.7813 117.8594,545.7813 C115.8125,545.7813 114.5156,544.6875 114.5156,542.9844 L114.5156,541.8906 C114.5156,540.1094 115.7656,538.7969 117.5,538.7969 C118.0781,538.7969 118.6875,538.9531 119.1563,539.2031 C119.6406,539.4844 119.8125,539.7031 119.9063,540.1094 C119.9688,540.5156 120,540.6406 120.1406,540.7656 C120.2813,540.9063 120.5156,541.0156 120.7344,541.0156 C121,541.0156 121.2656,540.875 121.4375,540.6563 C121.5469,540.5 121.5781,540.3125 121.5781,539.8906 L121.5781,538.4688 C121.5781,538.0313 121.5625,537.9063 121.4688,537.75 C121.3125,537.4844 121.0313,537.3438 120.7344,537.3438 C120.4375,537.3438 120.2344,537.4375 120.0156,537.75 L119.8438,537.6719 Z " fill="#000000"/><text fill="#000000" font-family="Verdana" font-size="14" lengthAdjust="spacing" textLength="107" x="129.5" y="546.8467">AuthController</text><line style="stroke:#000000;stroke-width:1.0;" x1="105.5" x2="238.5" y1="556" y2="556"/><line style="stroke:#000000;stroke-width:1.0;" x1="105.5" x2="238.5" y1="564" y2="564"/></g><!--class Role--><g id="elem_Role"><rect codeLine="59" fill="#FFFFFF" height="44" id="Role" rx="2.5" ry="2.5" style="stroke:#000000;stroke-width:1.0;" width="60" x="142" y="647"/><ellipse cx="155" cy="661" fill="#FFFFFF" rx="9" ry="9" style="stroke:#000000;stroke-width:1.0;"/><path d="M153.7969,661.875 L155.25,661.875 L155.25,661.9844 C155.25,662.3906 155.2813,662.5469 155.3594,662.7031 C155.5156,662.9531 155.7969,663.1094 156.0938,663.1094 C156.3438,663.1094 156.6094,662.9688 156.7656,662.75 C156.8906,662.5938 156.9219,662.4375 156.9219,661.9844 L156.9219,660.0625 C156.9219,659.9063 156.9219,659.8594 156.9063,659.7031 C156.8438,659.2344 156.5313,658.9219 156.0781,658.9219 C155.8281,658.9219 155.5625,659.0625 155.3906,659.2813 C155.2813,659.4531 155.25,659.6094 155.25,660.0625 L155.25,660.1875 L153.7969,660.1875 L153.7969,657.7813 L157.7813,657.7813 L157.7813,658.6406 C157.7813,659.0469 157.8125,659.2188 157.8906,659.375 C158.0625,659.625 158.3438,659.7813 158.625,659.7813 C158.8906,659.7813 159.1563,659.6406 159.3281,659.4219 C159.4375,659.25 159.4688,659.1094 159.4688,658.6406 L159.4688,656.0938 L151.8438,656.0938 C151.4063,656.0938 151.2813,656.1094 151.125,656.2031 C150.875,656.3594 150.7188,656.6563 150.7188,656.9375 C150.7188,657.2188 150.8594,657.4688 151.0781,657.6406 C151.2344,657.75 151.4219,657.7813 151.8438,657.7813 L152.0938,657.7813 L152.0938,664.2969 L151.8438,664.2969 C151.4375,664.2969 151.2813,664.3125 151.125,664.4219 C150.875,664.5938 150.7188,664.8594 150.7188,665.1563 C150.7188,665.4219 150.8594,665.6719 151.0781,665.8281 C151.2188,665.9531 151.4531,666 151.8438,666 L159.8438,666 L159.8438,663.4219 C159.8438,662.9844 159.8125,662.8438 159.7344,662.6875 C159.5625,662.4375 159.2813,662.2813 159,662.2813 C158.7344,662.2813 158.4688,662.3906 158.2969,662.6406 C158.1875,662.7969 158.1563,662.9375 158.1563,663.4219 L158.1563,664.2969 L153.7969,664.2969 L153.7969,661.875 Z " fill="#000000"/><text fill="#000000" font-family="Verdana" font-size="14" lengthAdjust="spacing" textLength="32" x="167" y="665.8467">Role</text><line style="stroke:#000000;stroke-width:1.0;" x1="143" x2="201" y1="675" y2="675"/><line style="stroke:#000000;stroke-width:1.0;" x1="143" x2="201" y1="683" y2="683"/></g><!--class RoleRepository--><g id="elem_RoleRepository"><rect codeLine="60" fill="#FFFFFF" height="44" id="RoleRepository" rx="2.5" ry="2.5" style="stroke:#000000;stroke-width:1.0;" width="139" x="102.5" y="766"/><ellipse cx="115.5" cy="780" fill="#FFFFFF" rx="9" ry="9" style="stroke:#000000;stroke-width:1.0;"/><path d="M117.8438,775.6719 C116.9063,775.2344 116.3125,775.0938 115.4375,775.0938 C112.8125,775.0938 110.8125,777.1719 110.8125,779.8906 L110.8125,781.0156 C110.8125,783.5938 112.9219,785.4844 115.8125,785.4844 C117.0313,785.4844 118.1875,785.1875 118.9375,784.6406 C119.5156,784.2344 119.8438,783.7813 119.8438,783.3906 C119.8438,782.9375 119.4531,782.5469 118.9844,782.5469 C118.7656,782.5469 118.5625,782.625 118.375,782.8125 C117.9219,783.2969 117.9219,783.2969 117.7344,783.3906 C117.3125,783.6563 116.625,783.7813 115.8594,783.7813 C113.8125,783.7813 112.5156,782.6875 112.5156,780.9844 L112.5156,779.8906 C112.5156,778.1094 113.7656,776.7969 115.5,776.7969 C116.0781,776.7969 116.6875,776.9531 117.1563,777.2031 C117.6406,777.4844 117.8125,777.7031 117.9063,778.1094 C117.9688,778.5156 118,778.6406 118.1406,778.7656 C118.2813,778.9063 118.5156,779.0156 118.7344,779.0156 C119,779.0156 119.2656,778.875 119.4375,778.6563 C119.5469,778.5 119.5781,778.3125 119.5781,777.8906 L119.5781,776.4688 C119.5781,776.0313 119.5625,775.9063 119.4688,775.75 C119.3125,775.4844 119.0313,775.3438 118.7344,775.3438 C118.4375,775.3438 118.2344,775.4375 118.0156,775.75 L117.8438,775.6719 Z " fill="#000000"/><text fill="#000000" font-family="Verdana" font-size="14" lengthAdjust="spacing" textLength="111" x="127.5" y="784.8467">RoleRepository</text><line style="stroke:#000000;stroke-width:1.0;" x1="103.5" x2="240.5" y1="794" y2="794"/><line style="stroke:#000000;stroke-width:1.0;" x1="103.5" x2="240.5" y1="802" y2="802"/></g><!--SRC=[XLJRRi8m37tlLsG_KEt-li6GDcqI0gOzJgMOuYsDgyJ04EBVbxJGfZJhNjh4vyG-FcvwmIl8GHGoGHKbKjBsCySVL5aaOSc2IMZCLYmMg25b91L5qPBa0hIut4T2f38nHXX8rnfv5t_0V7fS3qWjCLlhf3pLONvjENxPyiEQLq-AzMvCgBYNDgDlK2EK3FfFtbZJ1gsuw53Bl0h8DA0tc4ByRXT3u0IbcLQXvxoGDLz3GGQPzAvaJkgjPO1Yc-duAc7HNsUiKQLOIF1e3NeiNsCfMLD8Ij0bFAYtNcVN-uwEHvGo61mxvUr1LCKTs5FSmLxnqEbJwd-od6Y1R9xFFhFbTv3fCHfRRlOTcPDPCfVG26pxKw4XtHNIhxZY19NSTWSqHBEgiqp0S69lY68d3VH3KKXCsnV6g-JE1ZmvDUdWdXauEFWPtUs3RO7BctJcS6PTm-gQtc0ziZnMKDrzesv9Eeyrc8AK0NVR9yTrpO3SNkNupJvwAhf_IMkaPosHzotuXb1hoYrHhvIX6jbLEpp5JBqNPVpm2m00]--></g></svg>